<?xml version="1.0" encoding="utf-8" standalone="no"?>
<!DOCTYPE svg PUBLIC "-//W3C//DTD SVG 1.1//EN"
  "http://www.w3.org/Graphics/SVG/1.1/DTD/svg11.dtd">
<!-- Created with matplotlib (https://matplotlib.org/) -->
<svg height="360pt" version="1.1" viewBox="0 0 720 360" width="720pt" xmlns="http://www.w3.org/2000/svg" xmlns:xlink="http://www.w3.org/1999/xlink">
 <defs>
  <style type="text/css">
*{stroke-linecap:butt;stroke-linejoin:round;}
  </style>
 </defs>
 <g id="figure_1">
  <g id="patch_1">
   <path d="M 0 360 
L 720 360 
L 720 0 
L 0 0 
z
" style="fill:#ffffff;"/>
  </g>
  <g id="axes_1">
   <g id="patch_2">
    <path d="M 51.17375 232.051492 
L 704.52 232.051492 
L 704.52 15.48 
L 51.17375 15.48 
z
" style="fill:#ffffff;"/>
   </g>
   <g id="patch_3">
    <path clip-path="url(#p86d18edcd0)" d="M 53.787135 232.051492 
L 74.694215 232.051492 
L 74.694215 25.792928 
L 53.787135 25.792928 
z
" style="stroke:#ffffff;stroke-linejoin:miter;"/>
   </g>
   <g id="patch_4">
    <path clip-path="url(#p86d18edcd0)" d="M 79.920985 232.051492 
L 100.828065 232.051492 
L 100.828065 68.0473 
L 79.920985 68.0473 
z
" style="fill:#090909;stroke:#ffffff;stroke-linejoin:miter;"/>
   </g>
   <g id="patch_5">
    <path clip-path="url(#p86d18edcd0)" d="M 106.054835 232.051492 
L 126.961915 232.051492 
L 126.961915 69.573865 
L 106.054835 69.573865 
z
" style="fill:#141414;stroke:#ffffff;stroke-linejoin:miter;"/>
   </g>
   <g id="patch_6">
    <path clip-path="url(#p86d18edcd0)" d="M 132.188685 232.051492 
L 153.095765 232.051492 
L 153.095765 74.438639 
L 132.188685 74.438639 
z
" style="fill:#1e1e1e;stroke:#ffffff;stroke-linejoin:miter;"/>
   </g>
   <g id="patch_7">
    <path clip-path="url(#p86d18edcd0)" d="M 158.322535 232.051492 
L 179.229615 232.051492 
L 179.229615 89.303373 
L 158.322535 89.303373 
z
" style="fill:#282828;stroke:#ffffff;stroke-linejoin:miter;"/>
   </g>
   <g id="patch_8">
    <path clip-path="url(#p86d18edcd0)" d="M 184.456385 232.051492 
L 205.363465 232.051492 
L 205.363465 89.579659 
L 184.456385 89.579659 
z
" style="fill:#323232;stroke:#ffffff;stroke-linejoin:miter;"/>
   </g>
   <g id="patch_9">
    <path clip-path="url(#p86d18edcd0)" d="M 210.590235 232.051492 
L 231.497315 232.051492 
L 231.497315 89.819597 
L 210.590235 89.819597 
z
" style="fill:#3c3c3c;stroke:#ffffff;stroke-linejoin:miter;"/>
   </g>
   <g id="patch_10">
    <path clip-path="url(#p86d18edcd0)" d="M 236.724085 232.051492 
L 257.631165 232.051492 
L 257.631165 92.037203 
L 236.724085 92.037203 
z
" style="fill:#464646;stroke:#ffffff;stroke-linejoin:miter;"/>
   </g>
   <g id="patch_11">
    <path clip-path="url(#p86d18edcd0)" d="M 262.857935 232.051492 
L 283.765015 232.051492 
L 283.765015 95.680325 
L 262.857935 95.680325 
z
" style="fill:#505050;stroke:#ffffff;stroke-linejoin:miter;"/>
   </g>
   <g id="patch_12">
    <path clip-path="url(#p86d18edcd0)" d="M 288.991785 232.051492 
L 309.898865 232.051492 
L 309.898865 97.594174 
L 288.991785 97.594174 
z
" style="fill:#5b5b5b;stroke:#ffffff;stroke-linejoin:miter;"/>
   </g>
   <g id="patch_13">
    <path clip-path="url(#p86d18edcd0)" d="M 315.125635 232.051492 
L 336.032715 232.051492 
L 336.032715 97.861371 
L 315.125635 97.861371 
z
" style="fill:#646464;stroke:#ffffff;stroke-linejoin:miter;"/>
   </g>
   <g id="patch_14">
    <path clip-path="url(#p86d18edcd0)" d="M 341.259485 232.051492 
L 362.166565 232.051492 
L 362.166565 99.128675 
L 341.259485 99.128675 
z
" style="fill:#6e6e6e;stroke:#ffffff;stroke-linejoin:miter;"/>
   </g>
   <g id="patch_15">
    <path clip-path="url(#p86d18edcd0)" d="M 367.393335 232.051492 
L 388.300415 232.051492 
L 388.300415 107.775606 
L 367.393335 107.775606 
z
" style="fill:#797979;stroke:#ffffff;stroke-linejoin:miter;"/>
   </g>
   <g id="patch_16">
    <path clip-path="url(#p86d18edcd0)" d="M 393.527185 232.051492 
L 414.434265 232.051492 
L 414.434265 108.568995 
L 393.527185 108.568995 
z
" style="fill:#828282;stroke:#ffffff;stroke-linejoin:miter;"/>
   </g>
   <g id="patch_17">
    <path clip-path="url(#p86d18edcd0)" d="M 419.661035 232.051492 
L 440.568115 232.051492 
L 440.568115 109.283389 
L 419.661035 109.283389 
z
" style="fill:#8d8d8d;stroke:#ffffff;stroke-linejoin:miter;"/>
   </g>
   <g id="patch_18">
    <path clip-path="url(#p86d18edcd0)" d="M 445.794885 232.051492 
L 466.701965 232.051492 
L 466.701965 109.700434 
L 445.794885 109.700434 
z
" style="fill:#979797;stroke:#ffffff;stroke-linejoin:miter;"/>
   </g>
   <g id="patch_19">
    <path clip-path="url(#p86d18edcd0)" d="M 471.928735 232.051492 
L 492.835815 232.051492 
L 492.835815 110.758315 
L 471.928735 110.758315 
z
" style="fill:#a0a0a0;stroke:#ffffff;stroke-linejoin:miter;"/>
   </g>
   <g id="patch_20">
    <path clip-path="url(#p86d18edcd0)" d="M 498.062585 232.051492 
L 518.969665 232.051492 
L 518.969665 114.949753 
L 498.062585 114.949753 
z
" style="fill:#ababab;stroke:#ffffff;stroke-linejoin:miter;"/>
   </g>
   <g id="patch_21">
    <path clip-path="url(#p86d18edcd0)" d="M 524.196435 232.051492 
L 545.103515 232.051492 
L 545.103515 115.015727 
L 524.196435 115.015727 
z
" style="fill:#b5b5b5;stroke:#ffffff;stroke-linejoin:miter;"/>
   </g>
   <g id="patch_22">
    <path clip-path="url(#p86d18edcd0)" d="M 550.330285 232.051492 
L 571.237365 232.051492 
L 571.237365 115.758983 
L 550.330285 115.758983 
z
" style="fill:#bfbfbf;stroke:#ffffff;stroke-linejoin:miter;"/>
   </g>
   <g id="patch_23">
    <path clip-path="url(#p86d18edcd0)" d="M 576.464135 232.051492 
L 597.371215 232.051492 
L 597.371215 116.020031 
L 576.464135 116.020031 
z
" style="fill:#c9c9c9;stroke:#ffffff;stroke-linejoin:miter;"/>
   </g>
   <g id="patch_24">
    <path clip-path="url(#p86d18edcd0)" d="M 602.597985 232.051492 
L 623.505065 232.051492 
L 623.505065 116.410351 
L 602.597985 116.410351 
z
" style="fill:#d3d3d3;stroke:#ffffff;stroke-linejoin:miter;"/>
   </g>
   <g id="patch_25">
    <path clip-path="url(#p86d18edcd0)" d="M 628.731835 232.051492 
L 649.638915 232.051492 
L 649.638915 118.632323 
L 628.731835 118.632323 
z
" style="fill:#dddddd;stroke:#ffffff;stroke-linejoin:miter;"/>
   </g>
   <g id="patch_26">
    <path clip-path="url(#p86d18edcd0)" d="M 654.865685 232.051492 
L 675.772765 232.051492 
L 675.772765 118.879792 
L 654.865685 118.879792 
z
" style="fill:#e7e7e7;stroke:#ffffff;stroke-linejoin:miter;"/>
   </g>
   <g id="patch_27">
    <path clip-path="url(#p86d18edcd0)" d="M 680.999535 232.051492 
L 701.906615 232.051492 
L 701.906615 158.469052 
L 680.999535 158.469052 
z
" style="fill:#f1f1f1;stroke:#ffffff;stroke-linejoin:miter;"/>
   </g>
   <g id="matplotlib.axis_1">
    <g id="xtick_1">
     <g id="line2d_1">
      <defs>
       <path d="M 0 0 
L 0 3.5 
" id="m35e05b5c03" style="stroke:#000000;stroke-width:0.8;"/>
      </defs>
      <g>
       <use style="stroke:#000000;stroke-width:0.8;" x="64.240675" xlink:href="#m35e05b5c03" y="232.051492"/>
      </g>
     </g>
     <g id="text_1">
      <!-- Human -->
      <defs>
       <path d="M 20.5625 35.5 
L 51.3125 35.5 
L 51.3125 54.4375 
Q 51.3125 59.515625 50.6875 61.140625 
Q 50.203125 62.359375 48.640625 63.234375 
Q 46.53125 64.40625 44.1875 64.40625 
L 41.84375 64.40625 
L 41.84375 66.21875 
L 70.171875 66.21875 
L 70.171875 64.40625 
L 67.828125 64.40625 
Q 65.484375 64.40625 63.375 63.28125 
Q 61.8125 62.5 61.25 60.90625 
Q 60.6875 59.328125 60.6875 54.4375 
L 60.6875 11.71875 
Q 60.6875 6.6875 61.328125 5.078125 
Q 61.8125 3.859375 63.328125 2.984375 
Q 65.484375 1.8125 67.828125 1.8125 
L 70.171875 1.8125 
L 70.171875 0 
L 41.84375 0 
L 41.84375 1.8125 
L 44.1875 1.8125 
Q 48.25 1.8125 50.09375 4.203125 
Q 51.3125 5.765625 51.3125 11.71875 
L 51.3125 31.890625 
L 20.5625 31.890625 
L 20.5625 11.71875 
Q 20.5625 6.6875 21.1875 5.078125 
Q 21.6875 3.859375 23.25 2.984375 
Q 25.34375 1.8125 27.6875 1.8125 
L 30.078125 1.8125 
L 30.078125 0 
L 1.703125 0 
L 1.703125 1.8125 
L 4.046875 1.8125 
Q 8.15625 1.8125 10.015625 4.203125 
Q 11.1875 5.765625 11.1875 11.71875 
L 11.1875 54.4375 
Q 11.1875 59.515625 10.546875 61.140625 
Q 10.0625 62.359375 8.546875 63.234375 
Q 6.390625 64.40625 4.046875 64.40625 
L 1.703125 64.40625 
L 1.703125 66.21875 
L 30.078125 66.21875 
L 30.078125 64.40625 
L 27.6875 64.40625 
Q 25.34375 64.40625 23.25 63.28125 
Q 21.734375 62.5 21.140625 60.90625 
Q 20.5625 59.328125 20.5625 54.4375 
z
" id="TimesNewRomanPSMT-72"/>
       <path d="M 42.328125 44.734375 
L 42.328125 17.625 
Q 42.328125 9.859375 42.6875 8.125 
Q 43.0625 6.390625 43.859375 5.703125 
Q 44.671875 5.03125 45.75 5.03125 
Q 47.265625 5.03125 49.171875 5.859375 
L 49.859375 4.15625 
L 36.46875 -1.375 
L 34.28125 -1.375 
L 34.28125 8.109375 
Q 28.515625 1.859375 25.484375 0.234375 
Q 22.46875 -1.375 19.09375 -1.375 
Q 15.328125 -1.375 12.5625 0.796875 
Q 9.8125 2.984375 8.734375 6.390625 
Q 7.671875 9.8125 7.671875 16.0625 
L 7.671875 36.03125 
Q 7.671875 39.203125 6.984375 40.421875 
Q 6.296875 41.65625 4.953125 42.3125 
Q 3.609375 42.96875 0.09375 42.921875 
L 0.09375 44.734375 
L 15.765625 44.734375 
L 15.765625 14.796875 
Q 15.765625 8.546875 17.9375 6.59375 
Q 20.125 4.640625 23.1875 4.640625 
Q 25.296875 4.640625 27.953125 5.953125 
Q 30.609375 7.28125 34.28125 10.984375 
L 34.28125 36.328125 
Q 34.28125 40.140625 32.890625 41.484375 
Q 31.5 42.828125 27.09375 42.921875 
L 27.09375 44.734375 
z
" id="TimesNewRomanPSMT-117"/>
       <path d="M 16.40625 36.53125 
Q 21.296875 41.40625 22.171875 42.140625 
Q 24.359375 44 26.890625 45.015625 
Q 29.4375 46.046875 31.9375 46.046875 
Q 36.140625 46.046875 39.15625 43.59375 
Q 42.1875 41.15625 43.21875 36.53125 
Q 48.25 42.390625 51.703125 44.21875 
Q 55.171875 46.046875 58.84375 46.046875 
Q 62.40625 46.046875 65.15625 44.21875 
Q 67.921875 42.390625 69.53125 38.234375 
Q 70.609375 35.40625 70.609375 29.34375 
L 70.609375 10.109375 
Q 70.609375 5.90625 71.234375 4.34375 
Q 71.734375 3.265625 73.046875 2.515625 
Q 74.359375 1.765625 77.34375 1.765625 
L 77.34375 0 
L 55.28125 0 
L 55.28125 1.765625 
L 56.203125 1.765625 
Q 59.078125 1.765625 60.6875 2.875 
Q 61.8125 3.65625 62.3125 5.375 
Q 62.5 6.203125 62.5 10.109375 
L 62.5 29.34375 
Q 62.5 34.8125 61.1875 37.0625 
Q 59.28125 40.1875 55.078125 40.1875 
Q 52.484375 40.1875 49.875 38.890625 
Q 47.265625 37.59375 43.5625 34.078125 
L 43.453125 33.546875 
L 43.5625 31.453125 
L 43.5625 10.109375 
Q 43.5625 5.515625 44.0625 4.390625 
Q 44.578125 3.265625 45.984375 2.515625 
Q 47.40625 1.765625 50.828125 1.765625 
L 50.828125 0 
L 28.21875 0 
L 28.21875 1.765625 
Q 31.9375 1.765625 33.328125 2.640625 
Q 34.71875 3.515625 35.25 5.28125 
Q 35.5 6.109375 35.5 10.109375 
L 35.5 29.34375 
Q 35.5 34.8125 33.890625 37.203125 
Q 31.734375 40.328125 27.875 40.328125 
Q 25.25 40.328125 22.65625 38.921875 
Q 18.609375 36.765625 16.40625 34.078125 
L 16.40625 10.109375 
Q 16.40625 5.71875 17.015625 4.390625 
Q 17.625 3.078125 18.8125 2.421875 
Q 20.015625 1.765625 23.6875 1.765625 
L 23.6875 0 
L 1.5625 0 
L 1.5625 1.765625 
Q 4.640625 1.765625 5.859375 2.421875 
Q 7.078125 3.078125 7.703125 4.515625 
Q 8.34375 5.953125 8.34375 10.109375 
L 8.34375 27.203125 
Q 8.34375 34.578125 7.90625 36.71875 
Q 7.5625 38.328125 6.828125 38.9375 
Q 6.109375 39.546875 4.828125 39.546875 
Q 3.46875 39.546875 1.5625 38.8125 
L 0.828125 40.578125 
L 14.3125 46.046875 
L 16.40625 46.046875 
z
" id="TimesNewRomanPSMT-109"/>
       <path d="M 28.46875 6.453125 
Q 21.578125 1.125 19.828125 0.296875 
Q 17.1875 -0.921875 14.203125 -0.921875 
Q 9.578125 -0.921875 6.5625 2.25 
Q 3.5625 5.421875 3.5625 10.59375 
Q 3.5625 13.875 5.03125 16.265625 
Q 7.03125 19.578125 11.984375 22.5 
Q 16.9375 25.4375 28.46875 29.640625 
L 28.46875 31.390625 
Q 28.46875 38.09375 26.34375 40.578125 
Q 24.21875 43.0625 20.171875 43.0625 
Q 17.09375 43.0625 15.28125 41.40625 
Q 13.421875 39.75 13.421875 37.59375 
L 13.53125 34.765625 
Q 13.53125 32.515625 12.375 31.296875 
Q 11.234375 30.078125 9.375 30.078125 
Q 7.5625 30.078125 6.421875 31.34375 
Q 5.28125 32.625 5.28125 34.8125 
Q 5.28125 39.015625 9.578125 42.53125 
Q 13.875 46.046875 21.625 46.046875 
Q 27.59375 46.046875 31.390625 44.046875 
Q 34.28125 42.53125 35.640625 39.3125 
Q 36.53125 37.203125 36.53125 30.71875 
L 36.53125 15.53125 
Q 36.53125 9.125 36.765625 7.6875 
Q 37.015625 6.25 37.578125 5.765625 
Q 38.140625 5.28125 38.875 5.28125 
Q 39.65625 5.28125 40.234375 5.609375 
Q 41.265625 6.25 44.1875 9.1875 
L 44.1875 6.453125 
Q 38.71875 -0.875 33.734375 -0.875 
Q 31.34375 -0.875 29.921875 0.78125 
Q 28.515625 2.4375 28.46875 6.453125 
z
M 28.46875 9.625 
L 28.46875 26.65625 
Q 21.09375 23.734375 18.953125 22.515625 
Q 15.09375 20.359375 13.421875 18.015625 
Q 11.765625 15.671875 11.765625 12.890625 
Q 11.765625 9.375 13.859375 7.046875 
Q 15.96875 4.734375 18.703125 4.734375 
Q 22.40625 4.734375 28.46875 9.625 
z
" id="TimesNewRomanPSMT-97"/>
       <path d="M 16.15625 36.578125 
Q 24.03125 46.046875 31.15625 46.046875 
Q 34.8125 46.046875 37.453125 44.21875 
Q 40.09375 42.390625 41.65625 38.1875 
Q 42.71875 35.25 42.71875 29.203125 
L 42.71875 10.109375 
Q 42.71875 5.859375 43.40625 4.34375 
Q 43.953125 3.125 45.140625 2.4375 
Q 46.34375 1.765625 49.5625 1.765625 
L 49.5625 0 
L 27.4375 0 
L 27.4375 1.765625 
L 28.375 1.765625 
Q 31.5 1.765625 32.734375 2.703125 
Q 33.984375 3.65625 34.46875 5.515625 
Q 34.671875 6.25 34.671875 10.109375 
L 34.671875 28.421875 
Q 34.671875 34.515625 33.078125 37.28125 
Q 31.5 40.046875 27.734375 40.046875 
Q 21.921875 40.046875 16.15625 33.6875 
L 16.15625 10.109375 
Q 16.15625 5.5625 16.703125 4.5 
Q 17.390625 3.078125 18.578125 2.421875 
Q 19.78125 1.765625 23.4375 1.765625 
L 23.4375 0 
L 1.3125 0 
L 1.3125 1.765625 
L 2.296875 1.765625 
Q 5.71875 1.765625 6.90625 3.484375 
Q 8.109375 5.21875 8.109375 10.109375 
L 8.109375 26.703125 
Q 8.109375 34.765625 7.734375 36.515625 
Q 7.375 38.28125 6.609375 38.90625 
Q 5.859375 39.546875 4.59375 39.546875 
Q 3.21875 39.546875 1.3125 38.8125 
L 0.59375 40.578125 
L 14.0625 46.046875 
L 16.15625 46.046875 
z
" id="TimesNewRomanPSMT-110"/>
      </defs>
      <g transform="translate(32.979926 275.068639)rotate(-45)scale(0.14 -0.14)">
       <use xlink:href="#TimesNewRomanPSMT-72"/>
       <use x="72.216797" xlink:href="#TimesNewRomanPSMT-117"/>
       <use x="122.216797" xlink:href="#TimesNewRomanPSMT-109"/>
       <use x="200" xlink:href="#TimesNewRomanPSMT-97"/>
       <use x="244.384766" xlink:href="#TimesNewRomanPSMT-110"/>
      </g>
     </g>
    </g>
    <g id="xtick_2">
     <g id="line2d_2">
      <g>
       <use style="stroke:#000000;stroke-width:0.8;" x="90.374525" xlink:href="#m35e05b5c03" y="232.051492"/>
      </g>
     </g>
     <g id="text_2">
      <!-- Album -->
      <defs>
       <path d="M 45.75 22.171875 
L 20.125 22.171875 
L 15.625 11.71875 
Q 13.96875 7.859375 13.96875 5.953125 
Q 13.96875 4.4375 15.40625 3.296875 
Q 16.84375 2.15625 21.625 1.8125 
L 21.625 0 
L 0.78125 0 
L 0.78125 1.8125 
Q 4.9375 2.546875 6.15625 3.71875 
Q 8.640625 6.0625 11.671875 13.234375 
L 34.96875 67.71875 
L 36.671875 67.71875 
L 59.71875 12.640625 
Q 62.5 6 64.765625 4.015625 
Q 67.046875 2.046875 71.09375 1.8125 
L 71.09375 0 
L 44.96875 0 
L 44.96875 1.8125 
Q 48.921875 2 50.3125 3.125 
Q 51.703125 4.25 51.703125 5.859375 
Q 51.703125 8.015625 49.75 12.640625 
z
M 44.390625 25.78125 
L 33.15625 52.546875 
L 21.625 25.78125 
z
" id="TimesNewRomanPSMT-65"/>
       <path d="M 18.5 69.4375 
L 18.5 10.109375 
Q 18.5 5.90625 19.109375 4.53125 
Q 19.734375 3.171875 21 2.46875 
Q 22.265625 1.765625 25.734375 1.765625 
L 25.734375 0 
L 3.8125 0 
L 3.8125 1.765625 
Q 6.890625 1.765625 8 2.390625 
Q 9.125 3.03125 9.765625 4.484375 
Q 10.40625 5.953125 10.40625 10.109375 
L 10.40625 50.734375 
Q 10.40625 58.296875 10.0625 60.03125 
Q 9.71875 61.765625 8.953125 62.390625 
Q 8.203125 63.03125 7.03125 63.03125 
Q 5.765625 63.03125 3.8125 62.25 
L 2.984375 63.96875 
L 16.3125 69.4375 
z
" id="TimesNewRomanPSMT-108"/>
       <path d="M 15.375 37.015625 
Q 21.875 46.046875 29.390625 46.046875 
Q 36.28125 46.046875 41.40625 40.15625 
Q 46.53125 34.28125 46.53125 24.078125 
Q 46.53125 12.15625 38.625 4.890625 
Q 31.84375 -1.375 23.484375 -1.375 
Q 19.578125 -1.375 15.546875 0.046875 
Q 11.53125 1.46875 7.328125 4.296875 
L 7.328125 50.640625 
Q 7.328125 58.25 6.953125 60 
Q 6.59375 61.765625 5.8125 62.390625 
Q 5.03125 63.03125 3.859375 63.03125 
Q 2.484375 63.03125 0.4375 62.25 
L -0.25 63.96875 
L 13.1875 69.4375 
L 15.375 69.4375 
z
M 15.375 33.890625 
L 15.375 7.125 
Q 17.875 4.6875 20.53125 3.4375 
Q 23.1875 2.203125 25.984375 2.203125 
Q 30.421875 2.203125 34.25 7.078125 
Q 38.09375 11.96875 38.09375 21.296875 
Q 38.09375 29.890625 34.25 34.5 
Q 30.421875 39.109375 25.53125 39.109375 
Q 22.953125 39.109375 20.359375 37.796875 
Q 18.40625 36.8125 15.375 33.890625 
z
" id="TimesNewRomanPSMT-98"/>
      </defs>
      <g transform="translate(60.75802 273.424395)rotate(-45)scale(0.14 -0.14)">
       <use xlink:href="#TimesNewRomanPSMT-65"/>
       <use x="72.216797" xlink:href="#TimesNewRomanPSMT-108"/>
       <use x="100" xlink:href="#TimesNewRomanPSMT-98"/>
       <use x="150" xlink:href="#TimesNewRomanPSMT-117"/>
       <use x="200" xlink:href="#TimesNewRomanPSMT-109"/>
      </g>
     </g>
    </g>
    <g id="xtick_3">
     <g id="line2d_3">
      <g>
       <use style="stroke:#000000;stroke-width:0.8;" x="116.508375" xlink:href="#m35e05b5c03" y="232.051492"/>
      </g>
     </g>
     <g id="text_3">
      <!-- Film -->
      <defs>
       <path d="M 20.453125 62.59375 
L 20.453125 36.578125 
L 32.515625 36.578125 
Q 36.671875 36.578125 38.59375 38.40625 
Q 40.53125 40.234375 41.15625 45.65625 
L 42.96875 45.65625 
L 42.96875 23.25 
L 41.15625 23.25 
Q 41.109375 27.09375 40.15625 28.90625 
Q 39.203125 30.71875 37.515625 31.609375 
Q 35.84375 32.515625 32.515625 32.515625 
L 20.453125 32.515625 
L 20.453125 11.71875 
Q 20.453125 6.6875 21.09375 5.078125 
Q 21.578125 3.859375 23.140625 2.984375 
Q 25.296875 1.8125 27.640625 1.8125 
L 30.03125 1.8125 
L 30.03125 0 
L 1.609375 0 
L 1.609375 1.8125 
L 3.953125 1.8125 
Q 8.0625 1.8125 9.90625 4.203125 
Q 11.078125 5.765625 11.078125 11.71875 
L 11.078125 54.5 
Q 11.078125 59.515625 10.453125 61.140625 
Q 9.96875 62.359375 8.453125 63.234375 
Q 6.34375 64.40625 3.953125 64.40625 
L 1.609375 64.40625 
L 1.609375 66.21875 
L 50.875 66.21875 
L 51.515625 51.65625 
L 49.8125 51.65625 
Q 48.53125 56.296875 46.84375 58.46875 
Q 45.171875 60.640625 42.703125 61.609375 
Q 40.234375 62.59375 35.0625 62.59375 
z
" id="TimesNewRomanPSMT-70"/>
       <path d="M 14.5 69.4375 
Q 16.546875 69.4375 17.984375 67.984375 
Q 19.4375 66.546875 19.4375 64.5 
Q 19.4375 62.453125 17.984375 60.984375 
Q 16.546875 59.515625 14.5 59.515625 
Q 12.453125 59.515625 10.984375 60.984375 
Q 9.515625 62.453125 9.515625 64.5 
Q 9.515625 66.546875 10.953125 67.984375 
Q 12.40625 69.4375 14.5 69.4375 
z
M 18.5625 46.046875 
L 18.5625 10.109375 
Q 18.5625 5.90625 19.171875 4.515625 
Q 19.78125 3.125 20.96875 2.4375 
Q 22.171875 1.765625 25.34375 1.765625 
L 25.34375 0 
L 3.609375 0 
L 3.609375 1.765625 
Q 6.890625 1.765625 8 2.390625 
Q 9.125 3.03125 9.78125 4.484375 
Q 10.453125 5.953125 10.453125 10.109375 
L 10.453125 27.34375 
Q 10.453125 34.625 10.015625 36.765625 
Q 9.671875 38.328125 8.9375 38.9375 
Q 8.203125 39.546875 6.9375 39.546875 
Q 5.5625 39.546875 3.609375 38.8125 
L 2.9375 40.578125 
L 16.40625 46.046875 
z
" id="TimesNewRomanPSMT-105"/>
      </defs>
      <g transform="translate(95.685406 264.630859)rotate(-45)scale(0.14 -0.14)">
       <use xlink:href="#TimesNewRomanPSMT-70"/>
       <use x="55.615234" xlink:href="#TimesNewRomanPSMT-105"/>
       <use x="83.398438" xlink:href="#TimesNewRomanPSMT-108"/>
       <use x="111.181641" xlink:href="#TimesNewRomanPSMT-109"/>
      </g>
     </g>
    </g>
    <g id="xtick_4">
     <g id="line2d_4">
      <g>
       <use style="stroke:#000000;stroke-width:0.8;" x="142.642225" xlink:href="#m35e05b5c03" y="232.051492"/>
      </g>
     </g>
     <g id="text_4">
      <!-- Village -->
      <defs>
       <path d="M 71 66.21875 
L 71 64.40625 
Q 67.484375 63.765625 65.671875 62.15625 
Q 63.09375 59.765625 61.078125 54.828125 
L 37.984375 -1.515625 
L 36.1875 -1.515625 
L 11.375 55.5625 
Q 9.46875 59.96875 8.6875 60.9375 
Q 7.46875 62.453125 5.6875 63.296875 
Q 3.90625 64.15625 0.875 64.40625 
L 0.875 66.21875 
L 27.9375 66.21875 
L 27.9375 64.40625 
Q 23.34375 63.96875 21.96875 62.84375 
Q 20.609375 61.71875 20.609375 59.96875 
Q 20.609375 57.515625 22.859375 52.34375 
L 39.703125 13.53125 
L 55.328125 51.859375 
Q 57.625 57.515625 57.625 59.71875 
Q 57.625 61.140625 56.203125 62.421875 
Q 54.78125 63.71875 51.421875 64.265625 
Q 51.171875 64.3125 50.59375 64.40625 
L 50.59375 66.21875 
z
" id="TimesNewRomanPSMT-86"/>
       <path d="M 15.09375 16.3125 
Q 10.984375 18.3125 8.78125 21.890625 
Q 6.59375 25.484375 6.59375 29.828125 
Q 6.59375 36.46875 11.59375 41.25 
Q 16.609375 46.046875 24.421875 46.046875 
Q 30.8125 46.046875 35.5 42.921875 
L 44.96875 42.921875 
Q 47.078125 42.921875 47.40625 42.796875 
Q 47.75 42.671875 47.90625 42.390625 
Q 48.1875 41.9375 48.1875 40.828125 
Q 48.1875 39.546875 47.953125 39.0625 
Q 47.796875 38.8125 47.4375 38.671875 
Q 47.078125 38.53125 44.96875 38.53125 
L 39.15625 38.53125 
Q 41.890625 35.015625 41.890625 29.546875 
Q 41.890625 23.296875 37.109375 18.84375 
Q 32.328125 14.40625 24.265625 14.40625 
Q 20.953125 14.40625 17.484375 15.375 
Q 15.328125 13.53125 14.5625 12.140625 
Q 13.8125 10.75 13.8125 9.765625 
Q 13.8125 8.9375 14.625 8.15625 
Q 15.4375 7.375 17.78125 7.03125 
Q 19.140625 6.84375 24.609375 6.6875 
Q 34.671875 6.453125 37.640625 6 
Q 42.1875 5.375 44.890625 2.640625 
Q 47.609375 -0.09375 47.609375 -4.109375 
Q 47.609375 -9.625 42.4375 -14.453125 
Q 34.8125 -21.578125 22.5625 -21.578125 
Q 13.140625 -21.578125 6.640625 -17.328125 
Q 2.984375 -14.890625 2.984375 -12.25 
Q 2.984375 -11.078125 3.515625 -9.90625 
Q 4.34375 -8.109375 6.9375 -4.890625 
Q 7.28125 -4.4375 11.921875 0.390625 
Q 9.375 1.90625 8.328125 3.09375 
Q 7.28125 4.296875 7.28125 5.8125 
Q 7.28125 7.515625 8.671875 9.8125 
Q 10.0625 12.109375 15.09375 16.3125 
z
M 23.578125 43.703125 
Q 19.96875 43.703125 17.53125 40.8125 
Q 15.09375 37.9375 15.09375 31.984375 
Q 15.09375 24.265625 18.40625 20.015625 
Q 20.953125 16.796875 24.859375 16.796875 
Q 28.5625 16.796875 30.953125 19.578125 
Q 33.34375 22.359375 33.34375 28.328125 
Q 33.34375 36.078125 29.984375 40.484375 
Q 27.484375 43.703125 23.578125 43.703125 
z
M 14.59375 0 
Q 12.3125 -2.484375 11.140625 -4.625 
Q 9.96875 -6.78125 9.96875 -8.59375 
Q 9.96875 -10.9375 12.796875 -12.703125 
Q 17.671875 -15.71875 26.90625 -15.71875 
Q 35.6875 -15.71875 39.859375 -12.609375 
Q 44.046875 -9.515625 44.046875 -6 
Q 44.046875 -3.46875 41.546875 -2.390625 
Q 39.015625 -1.3125 31.5 -1.125 
Q 20.515625 -0.828125 14.59375 0 
z
" id="TimesNewRomanPSMT-103"/>
       <path d="M 10.640625 27.875 
Q 10.59375 17.921875 15.484375 12.25 
Q 20.359375 6.59375 26.953125 6.59375 
Q 31.34375 6.59375 34.59375 9 
Q 37.84375 11.421875 40.046875 17.28125 
L 41.546875 16.3125 
Q 40.53125 9.625 35.59375 4.125 
Q 30.671875 -1.375 23.25 -1.375 
Q 15.1875 -1.375 9.453125 4.90625 
Q 3.71875 11.1875 3.71875 21.78125 
Q 3.71875 33.25 9.59375 39.671875 
Q 15.484375 46.09375 24.359375 46.09375 
Q 31.890625 46.09375 36.71875 41.140625 
Q 41.546875 36.1875 41.546875 27.875 
z
M 10.640625 30.71875 
L 31.34375 30.71875 
Q 31.109375 35.015625 30.328125 36.765625 
Q 29.109375 39.5 26.6875 41.0625 
Q 24.265625 42.625 21.625 42.625 
Q 17.578125 42.625 14.375 39.46875 
Q 11.1875 36.328125 10.640625 30.71875 
z
" id="TimesNewRomanPSMT-101"/>
      </defs>
      <g transform="translate(111.376836 275.054718)rotate(-45)scale(0.14 -0.14)">
       <use xlink:href="#TimesNewRomanPSMT-86"/>
       <use x="72.123047" xlink:href="#TimesNewRomanPSMT-105"/>
       <use x="99.90625" xlink:href="#TimesNewRomanPSMT-108"/>
       <use x="127.689453" xlink:href="#TimesNewRomanPSMT-108"/>
       <use x="155.472656" xlink:href="#TimesNewRomanPSMT-97"/>
       <use x="199.857422" xlink:href="#TimesNewRomanPSMT-103"/>
       <use x="249.857422" xlink:href="#TimesNewRomanPSMT-101"/>
      </g>
     </g>
    </g>
    <g id="xtick_5">
     <g id="line2d_5">
      <g>
       <use style="stroke:#000000;stroke-width:0.8;" x="168.776075" xlink:href="#m35e05b5c03" y="232.051492"/>
      </g>
     </g>
     <g id="text_5">
      <!-- River -->
      <defs>
       <path d="M 67.578125 0 
L 49.90625 0 
L 27.484375 30.953125 
Q 25 30.859375 23.4375 30.859375 
Q 22.796875 30.859375 22.0625 30.875 
Q 21.34375 30.90625 20.5625 30.953125 
L 20.5625 11.71875 
Q 20.5625 5.46875 21.921875 3.953125 
Q 23.78125 1.8125 27.484375 1.8125 
L 30.078125 1.8125 
L 30.078125 0 
L 1.703125 0 
L 1.703125 1.8125 
L 4.203125 1.8125 
Q 8.40625 1.8125 10.203125 4.546875 
Q 11.234375 6.0625 11.234375 11.71875 
L 11.234375 54.5 
Q 11.234375 60.75 9.859375 62.25 
Q 7.953125 64.40625 4.203125 64.40625 
L 1.703125 64.40625 
L 1.703125 66.21875 
L 25.828125 66.21875 
Q 36.375 66.21875 41.375 64.671875 
Q 46.390625 63.140625 49.875 59.015625 
Q 53.375 54.890625 53.375 49.171875 
Q 53.375 43.0625 49.390625 38.5625 
Q 45.40625 34.078125 37.0625 32.234375 
L 50.734375 13.234375 
Q 55.421875 6.6875 58.78125 4.53125 
Q 62.15625 2.390625 67.578125 1.8125 
z
M 20.5625 34.03125 
Q 21.484375 34.03125 22.171875 34 
Q 22.859375 33.984375 23.296875 33.984375 
Q 32.765625 33.984375 37.578125 38.078125 
Q 42.390625 42.1875 42.390625 48.53125 
Q 42.390625 54.734375 38.5 58.609375 
Q 34.625 62.5 28.21875 62.5 
Q 25.390625 62.5 20.5625 61.578125 
z
" id="TimesNewRomanPSMT-82"/>
       <path d="M 0.828125 44.734375 
L 21.875 44.734375 
L 21.875 42.921875 
L 20.515625 42.921875 
Q 18.609375 42.921875 17.609375 41.984375 
Q 16.609375 41.0625 16.609375 39.5 
Q 16.609375 37.796875 17.625 35.453125 
L 28.03125 10.75 
L 38.484375 36.375 
Q 39.59375 39.109375 39.59375 40.53125 
Q 39.59375 41.21875 39.203125 41.65625 
Q 38.671875 42.390625 37.84375 42.65625 
Q 37.015625 42.921875 34.46875 42.921875 
L 34.46875 44.734375 
L 49.078125 44.734375 
L 49.078125 42.921875 
Q 46.53125 42.71875 45.5625 41.890625 
Q 43.84375 40.4375 42.484375 37.015625 
L 26.609375 -1.375 
L 24.609375 -1.375 
L 8.640625 36.375 
Q 7.5625 39.015625 6.578125 40.15625 
Q 5.609375 41.3125 4.109375 42.09375 
Q 3.265625 42.53125 0.828125 42.921875 
z
" id="TimesNewRomanPSMT-118"/>
       <path d="M 16.21875 46.046875 
L 16.21875 35.984375 
Q 21.828125 46.046875 27.734375 46.046875 
Q 30.421875 46.046875 32.171875 44.40625 
Q 33.9375 42.78125 33.9375 40.625 
Q 33.9375 38.71875 32.65625 37.390625 
Q 31.390625 36.078125 29.640625 36.078125 
Q 27.9375 36.078125 25.8125 37.765625 
Q 23.6875 39.453125 22.65625 39.453125 
Q 21.78125 39.453125 20.75 38.484375 
Q 18.5625 36.46875 16.21875 31.890625 
L 16.21875 10.453125 
Q 16.21875 6.734375 17.140625 4.828125 
Q 17.78125 3.515625 19.390625 2.640625 
Q 21 1.765625 24.03125 1.765625 
L 24.03125 0 
L 1.125 0 
L 1.125 1.765625 
Q 4.546875 1.765625 6.203125 2.828125 
Q 7.421875 3.609375 7.90625 5.328125 
Q 8.15625 6.15625 8.15625 10.0625 
L 8.15625 27.390625 
Q 8.15625 35.203125 7.828125 36.6875 
Q 7.515625 38.1875 6.65625 38.859375 
Q 5.8125 39.546875 4.546875 39.546875 
Q 3.03125 39.546875 1.125 38.8125 
L 0.640625 40.578125 
L 14.15625 46.046875 
z
" id="TimesNewRomanPSMT-114"/>
      </defs>
      <g transform="translate(144.664618 267.919348)rotate(-45)scale(0.14 -0.14)">
       <use xlink:href="#TimesNewRomanPSMT-82"/>
       <use x="66.699219" xlink:href="#TimesNewRomanPSMT-105"/>
       <use x="94.482422" xlink:href="#TimesNewRomanPSMT-118"/>
       <use x="144.482422" xlink:href="#TimesNewRomanPSMT-101"/>
       <use x="188.867188" xlink:href="#TimesNewRomanPSMT-114"/>
      </g>
     </g>
    </g>
    <g id="xtick_6">
     <g id="line2d_6">
      <g>
       <use style="stroke:#000000;stroke-width:0.8;" x="194.909925" xlink:href="#m35e05b5c03" y="232.051492"/>
      </g>
     </g>
     <g id="text_6">
      <!-- Train station -->
      <defs>
       <path d="M 57.859375 66.21875 
L 58.59375 50.6875 
L 56.734375 50.6875 
Q 56.203125 54.78125 55.28125 56.546875 
Q 53.765625 59.375 51.25 60.71875 
Q 48.734375 62.0625 44.625 62.0625 
L 35.296875 62.0625 
L 35.296875 11.46875 
Q 35.296875 5.375 36.625 3.859375 
Q 38.484375 1.8125 42.328125 1.8125 
L 44.625 1.8125 
L 44.625 0 
L 16.546875 0 
L 16.546875 1.8125 
L 18.890625 1.8125 
Q 23.09375 1.8125 24.859375 4.34375 
Q 25.921875 5.90625 25.921875 11.46875 
L 25.921875 62.0625 
L 17.96875 62.0625 
Q 13.328125 62.0625 11.375 61.375 
Q 8.84375 60.453125 7.03125 57.8125 
Q 5.21875 55.171875 4.890625 50.6875 
L 3.03125 50.6875 
L 3.8125 66.21875 
z
" id="TimesNewRomanPSMT-84"/>
       <path id="TimesNewRomanPSMT-32"/>
       <path d="M 32.03125 46.046875 
L 32.03125 30.8125 
L 30.421875 30.8125 
Q 28.5625 37.984375 25.65625 40.578125 
Q 22.75 43.171875 18.265625 43.171875 
Q 14.84375 43.171875 12.734375 41.359375 
Q 10.640625 39.546875 10.640625 37.359375 
Q 10.640625 34.625 12.203125 32.671875 
Q 13.71875 30.671875 18.359375 28.421875 
L 25.484375 24.953125 
Q 35.40625 20.125 35.40625 12.203125 
Q 35.40625 6.109375 30.78125 2.359375 
Q 26.171875 -1.375 20.453125 -1.375 
Q 16.359375 -1.375 11.078125 0.09375 
Q 9.46875 0.59375 8.453125 0.59375 
Q 7.328125 0.59375 6.6875 -0.6875 
L 5.078125 -0.6875 
L 5.078125 15.28125 
L 6.6875 15.28125 
Q 8.0625 8.453125 11.90625 4.984375 
Q 15.765625 1.515625 20.5625 1.515625 
Q 23.921875 1.515625 26.046875 3.484375 
Q 28.171875 5.46875 28.171875 8.25 
Q 28.171875 11.625 25.796875 13.921875 
Q 23.4375 16.21875 16.359375 19.734375 
Q 9.28125 23.25 7.078125 26.078125 
Q 4.890625 28.859375 4.890625 33.109375 
Q 4.890625 38.625 8.671875 42.328125 
Q 12.453125 46.046875 18.453125 46.046875 
Q 21.09375 46.046875 24.859375 44.921875 
Q 27.34375 44.1875 28.171875 44.1875 
Q 28.953125 44.1875 29.390625 44.53125 
Q 29.828125 44.875 30.421875 46.046875 
z
" id="TimesNewRomanPSMT-115"/>
       <path d="M 16.109375 59.421875 
L 16.109375 44.734375 
L 26.5625 44.734375 
L 26.5625 41.3125 
L 16.109375 41.3125 
L 16.109375 12.3125 
Q 16.109375 7.953125 17.359375 6.4375 
Q 18.609375 4.9375 20.5625 4.9375 
Q 22.171875 4.9375 23.6875 5.9375 
Q 25.203125 6.9375 26.03125 8.890625 
L 27.9375 8.890625 
Q 26.21875 4.109375 23.09375 1.6875 
Q 19.96875 -0.734375 16.65625 -0.734375 
Q 14.40625 -0.734375 12.25 0.515625 
Q 10.109375 1.765625 9.078125 4.078125 
Q 8.0625 6.390625 8.0625 11.234375 
L 8.0625 41.3125 
L 0.984375 41.3125 
L 0.984375 42.921875 
Q 3.65625 44 6.46875 46.5625 
Q 9.28125 49.125 11.46875 52.640625 
Q 12.59375 54.5 14.59375 59.421875 
z
" id="TimesNewRomanPSMT-116"/>
       <path d="M 25 46.046875 
Q 35.15625 46.046875 41.3125 38.328125 
Q 46.53125 31.734375 46.53125 23.1875 
Q 46.53125 17.1875 43.640625 11.03125 
Q 40.765625 4.890625 35.71875 1.75 
Q 30.671875 -1.375 24.46875 -1.375 
Q 14.359375 -1.375 8.40625 6.6875 
Q 3.375 13.484375 3.375 21.921875 
Q 3.375 28.078125 6.421875 34.15625 
Q 9.46875 40.234375 14.453125 43.140625 
Q 19.4375 46.046875 25 46.046875 
z
M 23.484375 42.875 
Q 20.90625 42.875 18.28125 41.328125 
Q 15.671875 39.796875 14.0625 35.9375 
Q 12.453125 32.078125 12.453125 26.03125 
Q 12.453125 16.265625 16.328125 9.171875 
Q 20.21875 2.09375 26.5625 2.09375 
Q 31.296875 2.09375 34.375 6 
Q 37.453125 9.90625 37.453125 19.4375 
Q 37.453125 31.34375 32.328125 38.1875 
Q 28.859375 42.875 23.484375 42.875 
z
" id="TimesNewRomanPSMT-111"/>
      </defs>
      <g transform="translate(142.487459 296.230356)rotate(-45)scale(0.14 -0.14)">
       <use xlink:href="#TimesNewRomanPSMT-84"/>
       <use x="61.037109" xlink:href="#TimesNewRomanPSMT-114"/>
       <use x="94.337891" xlink:href="#TimesNewRomanPSMT-97"/>
       <use x="138.722656" xlink:href="#TimesNewRomanPSMT-105"/>
       <use x="166.505859" xlink:href="#TimesNewRomanPSMT-110"/>
       <use x="216.505859" xlink:href="#TimesNewRomanPSMT-32"/>
       <use x="241.505859" xlink:href="#TimesNewRomanPSMT-115"/>
       <use x="280.421875" xlink:href="#TimesNewRomanPSMT-116"/>
       <use x="308.205078" xlink:href="#TimesNewRomanPSMT-97"/>
       <use x="352.589844" xlink:href="#TimesNewRomanPSMT-116"/>
       <use x="380.373047" xlink:href="#TimesNewRomanPSMT-105"/>
       <use x="408.15625" xlink:href="#TimesNewRomanPSMT-111"/>
       <use x="458.15625" xlink:href="#TimesNewRomanPSMT-110"/>
      </g>
     </g>
    </g>
    <g id="xtick_7">
     <g id="line2d_7">
      <g>
       <use style="stroke:#000000;stroke-width:0.8;" x="221.043775" xlink:href="#m35e05b5c03" y="232.051492"/>
      </g>
     </g>
     <g id="text_7">
      <!-- Band (rock and pop) -->
      <defs>
       <path d="M 46.1875 33.796875 
Q 53.078125 32.328125 56.5 29.109375 
Q 61.234375 24.609375 61.234375 18.109375 
Q 61.234375 13.1875 58.109375 8.671875 
Q 54.984375 4.15625 49.53125 2.078125 
Q 44.09375 0 32.90625 0 
L 1.65625 0 
L 1.65625 1.8125 
L 4.15625 1.8125 
Q 8.296875 1.8125 10.109375 4.4375 
Q 11.234375 6.15625 11.234375 11.71875 
L 11.234375 54.5 
Q 11.234375 60.640625 9.8125 62.25 
Q 7.90625 64.40625 4.15625 64.40625 
L 1.65625 64.40625 
L 1.65625 66.21875 
L 30.28125 66.21875 
Q 38.28125 66.21875 43.109375 65.046875 
Q 50.4375 63.28125 54.296875 58.8125 
Q 58.15625 54.34375 58.15625 48.53125 
Q 58.15625 43.5625 55.125 39.625 
Q 52.09375 35.6875 46.1875 33.796875 
z
M 20.609375 36.421875 
Q 22.40625 36.078125 24.71875 35.90625 
Q 27.046875 35.75 29.828125 35.75 
Q 36.96875 35.75 40.546875 37.28125 
Q 44.140625 38.8125 46.046875 41.984375 
Q 47.953125 45.171875 47.953125 48.921875 
Q 47.953125 54.734375 43.21875 58.828125 
Q 38.484375 62.9375 29.390625 62.9375 
Q 24.515625 62.9375 20.609375 61.859375 
z
M 20.609375 4.78125 
Q 26.265625 3.46875 31.78125 3.46875 
Q 40.625 3.46875 45.265625 7.4375 
Q 49.90625 11.421875 49.90625 17.28125 
Q 49.90625 21.140625 47.796875 24.703125 
Q 45.703125 28.265625 40.96875 30.3125 
Q 36.234375 32.375 29.25 32.375 
Q 26.21875 32.375 24.0625 32.265625 
Q 21.921875 32.171875 20.609375 31.9375 
z
" id="TimesNewRomanPSMT-66"/>
       <path d="M 34.71875 5.03125 
Q 31.453125 1.609375 28.328125 0.109375 
Q 25.203125 -1.375 21.578125 -1.375 
Q 14.265625 -1.375 8.796875 4.75 
Q 3.328125 10.890625 3.328125 20.515625 
Q 3.328125 30.125 9.375 38.109375 
Q 15.4375 46.09375 24.953125 46.09375 
Q 30.859375 46.09375 34.71875 42.328125 
L 34.71875 50.59375 
Q 34.71875 58.25 34.34375 60 
Q 33.984375 61.765625 33.203125 62.390625 
Q 32.421875 63.03125 31.25 63.03125 
Q 29.984375 63.03125 27.875 62.25 
L 27.25 63.96875 
L 40.578125 69.4375 
L 42.78125 69.4375 
L 42.78125 17.71875 
Q 42.78125 9.859375 43.140625 8.125 
Q 43.5 6.390625 44.3125 5.703125 
Q 45.125 5.03125 46.1875 5.03125 
Q 47.515625 5.03125 49.703125 5.859375 
L 50.25 4.15625 
L 36.96875 -1.375 
L 34.71875 -1.375 
z
M 34.71875 8.453125 
L 34.71875 31.5 
Q 34.421875 34.8125 32.953125 37.546875 
Q 31.5 40.28125 29.078125 41.671875 
Q 26.65625 43.0625 24.359375 43.0625 
Q 20.0625 43.0625 16.703125 39.203125 
Q 12.25 34.125 12.25 24.359375 
Q 12.25 14.5 16.546875 9.25 
Q 20.84375 4 26.125 4 
Q 30.5625 4 34.71875 8.453125 
z
" id="TimesNewRomanPSMT-100"/>
       <path d="M 31.0625 -19.578125 
L 31.0625 -21.390625 
Q 23.6875 -17.671875 18.75 -12.703125 
Q 11.71875 -5.609375 7.90625 4 
Q 4.109375 13.625 4.109375 23.96875 
Q 4.109375 39.109375 11.578125 51.578125 
Q 19.046875 64.0625 31.0625 69.4375 
L 31.0625 67.390625 
Q 25.046875 64.0625 21.1875 58.296875 
Q 17.328125 52.546875 15.421875 43.703125 
Q 13.53125 34.859375 13.53125 25.25 
Q 13.53125 14.796875 15.140625 6.25 
Q 16.40625 -0.484375 18.203125 -4.5625 
Q 20.015625 -8.640625 23.0625 -12.390625 
Q 26.125 -16.15625 31.0625 -19.578125 
z
" id="TimesNewRomanPSMT-40"/>
       <path d="M 41.109375 17 
Q 39.3125 8.15625 34.03125 3.390625 
Q 28.765625 -1.375 22.359375 -1.375 
Q 14.75 -1.375 9.078125 5.015625 
Q 3.421875 11.421875 3.421875 22.3125 
Q 3.421875 32.859375 9.6875 39.453125 
Q 15.96875 46.046875 24.75 46.046875 
Q 31.34375 46.046875 35.59375 42.546875 
Q 39.84375 39.0625 39.84375 35.296875 
Q 39.84375 33.453125 38.640625 32.296875 
Q 37.453125 31.15625 35.296875 31.15625 
Q 32.421875 31.15625 30.953125 33.015625 
Q 30.125 34.03125 29.859375 36.90625 
Q 29.59375 39.796875 27.875 41.3125 
Q 26.171875 42.78125 23.140625 42.78125 
Q 18.265625 42.78125 15.28125 39.15625 
Q 11.328125 34.375 11.328125 26.515625 
Q 11.328125 18.5 15.25 12.375 
Q 19.1875 6.25 25.875 6.25 
Q 30.671875 6.25 34.46875 9.515625 
Q 37.15625 11.765625 39.703125 17.671875 
z
" id="TimesNewRomanPSMT-99"/>
       <path d="M 16.359375 69.4375 
L 16.359375 24.953125 
L 27.734375 35.296875 
Q 31.34375 38.625 31.9375 39.5 
Q 32.328125 40.09375 32.328125 40.671875 
Q 32.328125 41.65625 31.515625 42.359375 
Q 30.71875 43.0625 28.859375 43.171875 
L 28.859375 44.734375 
L 48.296875 44.734375 
L 48.296875 43.171875 
Q 44.28125 43.0625 41.625 41.9375 
Q 38.96875 40.828125 35.796875 37.9375 
L 24.3125 27.34375 
L 35.796875 12.84375 
Q 40.578125 6.84375 42.234375 5.21875 
Q 44.578125 2.9375 46.34375 2.25 
Q 47.5625 1.765625 50.59375 1.765625 
L 50.59375 0 
L 28.859375 0 
L 28.859375 1.765625 
Q 30.71875 1.8125 31.375 2.3125 
Q 32.03125 2.828125 32.03125 3.765625 
Q 32.03125 4.890625 30.078125 7.375 
L 16.359375 24.90625 
L 16.359375 10.0625 
Q 16.359375 5.71875 16.96875 4.34375 
Q 17.578125 2.984375 18.703125 2.390625 
Q 19.828125 1.8125 23.578125 1.765625 
L 23.578125 0 
L 0.828125 0 
L 0.828125 1.765625 
Q 4.25 1.765625 5.953125 2.59375 
Q 6.984375 3.125 7.515625 4.25 
Q 8.25 5.859375 8.25 9.8125 
L 8.25 50.53125 
Q 8.25 58.296875 7.90625 60.03125 
Q 7.5625 61.765625 6.78125 62.421875 
Q 6 63.09375 4.734375 63.09375 
Q 3.71875 63.09375 1.65625 62.25 
L 0.828125 63.96875 
L 14.109375 69.4375 
z
" id="TimesNewRomanPSMT-107"/>
       <path d="M -0.09375 40.28125 
L 13.671875 45.84375 
L 15.53125 45.84375 
L 15.53125 35.40625 
Q 19 41.3125 22.484375 43.671875 
Q 25.984375 46.046875 29.828125 46.046875 
Q 36.578125 46.046875 41.0625 40.765625 
Q 46.578125 34.328125 46.578125 23.96875 
Q 46.578125 12.40625 39.9375 4.828125 
Q 34.46875 -1.375 26.171875 -1.375 
Q 22.5625 -1.375 19.921875 -0.34375 
Q 17.96875 0.390625 15.53125 2.59375 
L 15.53125 -11.03125 
Q 15.53125 -15.625 16.09375 -16.859375 
Q 16.65625 -18.109375 18.046875 -18.84375 
Q 19.4375 -19.578125 23.09375 -19.578125 
L 23.09375 -21.390625 
L -0.34375 -21.390625 
L -0.34375 -19.578125 
L 0.875 -19.578125 
Q 3.5625 -19.625 5.46875 -18.5625 
Q 6.390625 -18.015625 6.90625 -16.8125 
Q 7.421875 -15.625 7.421875 -10.75 
L 7.421875 31.546875 
Q 7.421875 35.890625 7.03125 37.0625 
Q 6.640625 38.234375 5.78125 38.8125 
Q 4.9375 39.40625 3.46875 39.40625 
Q 2.296875 39.40625 0.484375 38.71875 
z
M 15.53125 32.515625 
L 15.53125 15.828125 
Q 15.53125 10.40625 15.96875 8.6875 
Q 16.65625 5.859375 19.3125 3.703125 
Q 21.96875 1.5625 26.03125 1.5625 
Q 30.90625 1.5625 33.9375 5.375 
Q 37.890625 10.359375 37.890625 19.390625 
Q 37.890625 29.640625 33.40625 35.15625 
Q 30.28125 38.96875 25.984375 38.96875 
Q 23.640625 38.96875 21.34375 37.796875 
Q 19.578125 36.921875 15.53125 32.515625 
z
" id="TimesNewRomanPSMT-112"/>
       <path d="M 2.25 67.390625 
L 2.25 69.4375 
Q 9.671875 65.765625 14.59375 60.796875 
Q 21.578125 53.65625 25.390625 44.0625 
Q 29.203125 34.46875 29.203125 24.078125 
Q 29.203125 8.9375 21.75 -3.53125 
Q 14.3125 -16.015625 2.25 -21.390625 
L 2.25 -19.578125 
Q 8.25 -16.21875 12.125 -10.46875 
Q 16.015625 -4.734375 17.890625 4.125 
Q 19.78125 12.984375 19.78125 22.609375 
Q 19.78125 33.015625 18.171875 41.609375 
Q 16.9375 48.34375 15.109375 52.390625 
Q 13.28125 56.453125 10.25 60.203125 
Q 7.234375 63.96875 2.25 67.390625 
z
" id="TimesNewRomanPSMT-41"/>
      </defs>
      <g transform="translate(137.27858 327.573085)rotate(-45)scale(0.14 -0.14)">
       <use xlink:href="#TimesNewRomanPSMT-66"/>
       <use x="66.699219" xlink:href="#TimesNewRomanPSMT-97"/>
       <use x="111.083984" xlink:href="#TimesNewRomanPSMT-110"/>
       <use x="161.083984" xlink:href="#TimesNewRomanPSMT-100"/>
       <use x="211.083984" xlink:href="#TimesNewRomanPSMT-32"/>
       <use x="236.083984" xlink:href="#TimesNewRomanPSMT-40"/>
       <use x="269.384766" xlink:href="#TimesNewRomanPSMT-114"/>
       <use x="302.685547" xlink:href="#TimesNewRomanPSMT-111"/>
       <use x="352.685547" xlink:href="#TimesNewRomanPSMT-99"/>
       <use x="397.070312" xlink:href="#TimesNewRomanPSMT-107"/>
       <use x="447.070312" xlink:href="#TimesNewRomanPSMT-32"/>
       <use x="472.070312" xlink:href="#TimesNewRomanPSMT-97"/>
       <use x="516.455078" xlink:href="#TimesNewRomanPSMT-110"/>
       <use x="566.455078" xlink:href="#TimesNewRomanPSMT-100"/>
       <use x="616.455078" xlink:href="#TimesNewRomanPSMT-32"/>
       <use x="641.455078" xlink:href="#TimesNewRomanPSMT-112"/>
       <use x="691.455078" xlink:href="#TimesNewRomanPSMT-111"/>
       <use x="741.455078" xlink:href="#TimesNewRomanPSMT-112"/>
       <use x="791.455078" xlink:href="#TimesNewRomanPSMT-41"/>
      </g>
     </g>
    </g>
    <g id="xtick_8">
     <g id="line2d_8">
      <g>
       <use style="stroke:#000000;stroke-width:0.8;" x="247.177625" xlink:href="#m35e05b5c03" y="232.051492"/>
      </g>
     </g>
     <g id="text_8">
      <!-- Television series -->
      <g transform="translate(178.266313 312.719203)rotate(-45)scale(0.14 -0.14)">
       <use xlink:href="#TimesNewRomanPSMT-84"/>
       <use x="60.974609" xlink:href="#TimesNewRomanPSMT-101"/>
       <use x="105.359375" xlink:href="#TimesNewRomanPSMT-108"/>
       <use x="133.142578" xlink:href="#TimesNewRomanPSMT-101"/>
       <use x="177.527344" xlink:href="#TimesNewRomanPSMT-118"/>
       <use x="227.527344" xlink:href="#TimesNewRomanPSMT-105"/>
       <use x="255.310547" xlink:href="#TimesNewRomanPSMT-115"/>
       <use x="294.226562" xlink:href="#TimesNewRomanPSMT-105"/>
       <use x="322.009766" xlink:href="#TimesNewRomanPSMT-111"/>
       <use x="372.009766" xlink:href="#TimesNewRomanPSMT-110"/>
       <use x="422.009766" xlink:href="#TimesNewRomanPSMT-32"/>
       <use x="447.009766" xlink:href="#TimesNewRomanPSMT-115"/>
       <use x="485.925781" xlink:href="#TimesNewRomanPSMT-101"/>
       <use x="530.310547" xlink:href="#TimesNewRomanPSMT-114"/>
       <use x="563.611328" xlink:href="#TimesNewRomanPSMT-105"/>
       <use x="591.394531" xlink:href="#TimesNewRomanPSMT-101"/>
       <use x="635.779297" xlink:href="#TimesNewRomanPSMT-115"/>
      </g>
     </g>
    </g>
    <g id="xtick_9">
     <g id="line2d_9">
      <g>
       <use style="stroke:#000000;stroke-width:0.8;" x="273.311475" xlink:href="#m35e05b5c03" y="232.051492"/>
      </g>
     </g>
     <g id="text_9">
      <!-- Mountain -->
      <defs>
       <path d="M 40.921875 0 
L 15.328125 55.71875 
L 15.328125 11.46875 
Q 15.328125 5.375 16.65625 3.859375 
Q 18.453125 1.8125 22.359375 1.8125 
L 24.703125 1.8125 
L 24.703125 0 
L 1.65625 0 
L 1.65625 1.8125 
L 4 1.8125 
Q 8.203125 1.8125 9.96875 4.34375 
Q 11.03125 5.90625 11.03125 11.46875 
L 11.03125 54.734375 
Q 11.03125 59.125 10.0625 61.078125 
Q 9.375 62.5 7.546875 63.453125 
Q 5.71875 64.40625 1.65625 64.40625 
L 1.65625 66.21875 
L 20.40625 66.21875 
L 44.4375 14.40625 
L 68.0625 66.21875 
L 86.8125 66.21875 
L 86.8125 64.40625 
L 84.515625 64.40625 
Q 80.28125 64.40625 78.515625 61.859375 
Q 77.4375 60.296875 77.4375 54.734375 
L 77.4375 11.46875 
Q 77.4375 5.375 78.8125 3.859375 
Q 80.609375 1.8125 84.515625 1.8125 
L 86.8125 1.8125 
L 86.8125 0 
L 58.6875 0 
L 58.6875 1.8125 
L 61.03125 1.8125 
Q 65.28125 1.8125 67 4.34375 
Q 68.0625 5.90625 68.0625 11.46875 
L 68.0625 55.71875 
L 42.53125 0 
z
" id="TimesNewRomanPSMT-77"/>
      </defs>
      <g transform="translate(232.69725 284.422115)rotate(-45)scale(0.14 -0.14)">
       <use xlink:href="#TimesNewRomanPSMT-77"/>
       <use x="88.916016" xlink:href="#TimesNewRomanPSMT-111"/>
       <use x="138.916016" xlink:href="#TimesNewRomanPSMT-117"/>
       <use x="188.916016" xlink:href="#TimesNewRomanPSMT-110"/>
       <use x="238.916016" xlink:href="#TimesNewRomanPSMT-116"/>
       <use x="266.699219" xlink:href="#TimesNewRomanPSMT-97"/>
       <use x="311.083984" xlink:href="#TimesNewRomanPSMT-105"/>
       <use x="338.867188" xlink:href="#TimesNewRomanPSMT-110"/>
      </g>
     </g>
    </g>
    <g id="xtick_10">
     <g id="line2d_10">
      <g>
       <use style="stroke:#000000;stroke-width:0.8;" x="299.445325" xlink:href="#m35e05b5c03" y="232.051492"/>
      </g>
     </g>
     <g id="text_10">
      <!-- Video game -->
      <g transform="translate(249.211575 294.023078)rotate(-45)scale(0.14 -0.14)">
       <use xlink:href="#TimesNewRomanPSMT-86"/>
       <use x="72.123047" xlink:href="#TimesNewRomanPSMT-105"/>
       <use x="99.90625" xlink:href="#TimesNewRomanPSMT-100"/>
       <use x="149.90625" xlink:href="#TimesNewRomanPSMT-101"/>
       <use x="194.291016" xlink:href="#TimesNewRomanPSMT-111"/>
       <use x="244.291016" xlink:href="#TimesNewRomanPSMT-32"/>
       <use x="269.291016" xlink:href="#TimesNewRomanPSMT-103"/>
       <use x="319.291016" xlink:href="#TimesNewRomanPSMT-97"/>
       <use x="363.675781" xlink:href="#TimesNewRomanPSMT-109"/>
       <use x="441.458984" xlink:href="#TimesNewRomanPSMT-101"/>
      </g>
     </g>
    </g>
    <g id="xtick_11">
     <g id="line2d_11">
      <g>
       <use style="stroke:#000000;stroke-width:0.8;" x="325.579175" xlink:href="#m35e05b5c03" y="232.051492"/>
      </g>
     </g>
     <g id="text_11">
      <!-- Road -->
      <g transform="translate(302.564396 266.822669)rotate(-45)scale(0.14 -0.14)">
       <use xlink:href="#TimesNewRomanPSMT-82"/>
       <use x="66.699219" xlink:href="#TimesNewRomanPSMT-111"/>
       <use x="116.699219" xlink:href="#TimesNewRomanPSMT-97"/>
       <use x="161.083984" xlink:href="#TimesNewRomanPSMT-100"/>
      </g>
     </g>
    </g>
    <g id="xtick_12">
     <g id="line2d_12">
      <g>
       <use style="stroke:#000000;stroke-width:0.8;" x="351.713025" xlink:href="#m35e05b5c03" y="232.051492"/>
      </g>
     </g>
     <g id="text_12">
      <!-- Church (building) -->
      <defs>
       <path d="M 60.203125 67.71875 
L 61.71875 45.21875 
L 60.203125 45.21875 
Q 57.171875 55.328125 51.5625 59.765625 
Q 45.953125 64.203125 38.09375 64.203125 
Q 31.5 64.203125 26.171875 60.859375 
Q 20.84375 57.515625 17.796875 50.1875 
Q 14.75 42.875 14.75 31.984375 
Q 14.75 23 17.625 16.40625 
Q 20.515625 9.8125 26.296875 6.296875 
Q 32.078125 2.78125 39.5 2.78125 
Q 45.953125 2.78125 50.875 5.53125 
Q 55.8125 8.296875 61.71875 16.5 
L 63.234375 15.53125 
Q 58.25 6.6875 51.609375 2.578125 
Q 44.96875 -1.515625 35.84375 -1.515625 
Q 19.390625 -1.515625 10.359375 10.6875 
Q 3.609375 19.78125 3.609375 32.078125 
Q 3.609375 42 8.046875 50.296875 
Q 12.5 58.59375 20.28125 63.15625 
Q 28.078125 67.71875 37.3125 67.71875 
Q 44.484375 67.71875 51.46875 64.203125 
Q 53.515625 63.140625 54.390625 63.140625 
Q 55.71875 63.140625 56.6875 64.0625 
Q 57.953125 65.375 58.5 67.71875 
z
" id="TimesNewRomanPSMT-67"/>
       <path d="M 16.265625 69.4375 
L 16.265625 36.71875 
Q 21.6875 42.671875 24.859375 44.359375 
Q 28.03125 46.046875 31.203125 46.046875 
Q 35.015625 46.046875 37.75 43.9375 
Q 40.484375 41.84375 41.796875 37.359375 
Q 42.71875 34.234375 42.71875 25.921875 
L 42.71875 10.109375 
Q 42.71875 5.859375 43.40625 4.296875 
Q 43.890625 3.125 45.0625 2.4375 
Q 46.234375 1.765625 49.359375 1.765625 
L 49.359375 0 
L 27.390625 0 
L 27.390625 1.765625 
L 28.421875 1.765625 
Q 31.546875 1.765625 32.765625 2.703125 
Q 33.984375 3.65625 34.46875 5.515625 
Q 34.625 6.296875 34.625 10.109375 
L 34.625 25.921875 
Q 34.625 33.25 33.859375 35.546875 
Q 33.109375 37.84375 31.4375 38.984375 
Q 29.78125 40.140625 27.4375 40.140625 
Q 25.046875 40.140625 22.453125 38.859375 
Q 19.875 37.59375 16.265625 33.734375 
L 16.265625 10.109375 
Q 16.265625 5.515625 16.765625 4.390625 
Q 17.28125 3.265625 18.671875 2.515625 
Q 20.0625 1.765625 23.484375 1.765625 
L 23.484375 0 
L 1.3125 0 
L 1.3125 1.765625 
Q 4.296875 1.765625 6 2.6875 
Q 6.984375 3.171875 7.5625 4.53125 
Q 8.15625 5.90625 8.15625 10.109375 
L 8.15625 50.59375 
Q 8.15625 58.25 7.78125 60 
Q 7.421875 61.765625 6.65625 62.390625 
Q 5.90625 63.03125 4.640625 63.03125 
Q 3.609375 63.03125 1.3125 62.25 
L 0.640625 63.96875 
L 14.015625 69.4375 
z
" id="TimesNewRomanPSMT-104"/>
      </defs>
      <g transform="translate(278.367048 317.135306)rotate(-45)scale(0.14 -0.14)">
       <use xlink:href="#TimesNewRomanPSMT-67"/>
       <use x="66.699219" xlink:href="#TimesNewRomanPSMT-104"/>
       <use x="116.699219" xlink:href="#TimesNewRomanPSMT-117"/>
       <use x="166.699219" xlink:href="#TimesNewRomanPSMT-114"/>
       <use x="200" xlink:href="#TimesNewRomanPSMT-99"/>
       <use x="244.384766" xlink:href="#TimesNewRomanPSMT-104"/>
       <use x="294.384766" xlink:href="#TimesNewRomanPSMT-32"/>
       <use x="319.384766" xlink:href="#TimesNewRomanPSMT-40"/>
       <use x="352.685547" xlink:href="#TimesNewRomanPSMT-98"/>
       <use x="402.685547" xlink:href="#TimesNewRomanPSMT-117"/>
       <use x="452.685547" xlink:href="#TimesNewRomanPSMT-105"/>
       <use x="480.46875" xlink:href="#TimesNewRomanPSMT-108"/>
       <use x="508.251953" xlink:href="#TimesNewRomanPSMT-100"/>
       <use x="558.251953" xlink:href="#TimesNewRomanPSMT-105"/>
       <use x="586.035156" xlink:href="#TimesNewRomanPSMT-110"/>
       <use x="636.035156" xlink:href="#TimesNewRomanPSMT-103"/>
       <use x="686.035156" xlink:href="#TimesNewRomanPSMT-41"/>
      </g>
     </g>
    </g>
    <g id="xtick_13">
     <g id="line2d_13">
      <g>
       <use style="stroke:#000000;stroke-width:0.8;" x="377.846875" xlink:href="#m35e05b5c03" y="232.051492"/>
      </g>
     </g>
     <g id="text_13">
      <!-- Airport -->
      <g transform="translate(346.587673 275.067092)rotate(-45)scale(0.14 -0.14)">
       <use xlink:href="#TimesNewRomanPSMT-65"/>
       <use x="72.216797" xlink:href="#TimesNewRomanPSMT-105"/>
       <use x="100" xlink:href="#TimesNewRomanPSMT-114"/>
       <use x="133.300781" xlink:href="#TimesNewRomanPSMT-112"/>
       <use x="183.300781" xlink:href="#TimesNewRomanPSMT-111"/>
       <use x="233.300781" xlink:href="#TimesNewRomanPSMT-114"/>
       <use x="266.601562" xlink:href="#TimesNewRomanPSMT-116"/>
      </g>
     </g>
    </g>
    <g id="xtick_14">
     <g id="line2d_14">
      <g>
       <use style="stroke:#000000;stroke-width:0.8;" x="403.980725" xlink:href="#m35e05b5c03" y="232.051492"/>
      </g>
     </g>
     <g id="text_14">
      <!-- Town -->
      <defs>
       <path d="M 0.640625 44.734375 
L 19.390625 44.734375 
L 19.390625 42.921875 
Q 16.796875 42.71875 15.984375 41.984375 
Q 15.1875 41.265625 15.1875 39.890625 
Q 15.1875 38.375 16.015625 36.234375 
L 25.59375 10.5 
L 35.203125 31.453125 
L 32.671875 38.03125 
Q 31.5 40.96875 29.59375 42.09375 
Q 28.515625 42.78125 25.59375 42.921875 
L 25.59375 44.734375 
L 46.875 44.734375 
L 46.875 42.921875 
Q 43.359375 42.78125 41.890625 41.65625 
Q 40.921875 40.875 40.921875 39.15625 
Q 40.921875 38.1875 41.3125 37.15625 
L 51.46875 11.46875 
L 60.890625 36.234375 
Q 61.859375 38.875 61.859375 40.4375 
Q 61.859375 41.359375 60.90625 42.09375 
Q 59.96875 42.828125 57.171875 42.921875 
L 57.171875 44.734375 
L 71.296875 44.734375 
L 71.296875 42.921875 
Q 67.046875 42.28125 65.046875 37.15625 
L 50.09375 -1.375 
L 48.09375 -1.375 
L 36.921875 27.203125 
L 23.875 -1.375 
L 22.078125 -1.375 
L 7.71875 36.234375 
Q 6.296875 39.796875 4.921875 41.03125 
Q 3.5625 42.28125 0.640625 42.921875 
z
" id="TimesNewRomanPSMT-119"/>
      </defs>
      <g transform="translate(378.778776 269.009839)rotate(-45)scale(0.14 -0.14)">
       <use xlink:href="#TimesNewRomanPSMT-84"/>
       <use x="60.974609" xlink:href="#TimesNewRomanPSMT-111"/>
       <use x="110.974609" xlink:href="#TimesNewRomanPSMT-119"/>
       <use x="183.191406" xlink:href="#TimesNewRomanPSMT-110"/>
      </g>
     </g>
    </g>
    <g id="xtick_15">
     <g id="line2d_15">
      <g>
       <use style="stroke:#000000;stroke-width:0.8;" x="430.114575" xlink:href="#m35e05b5c03" y="232.051492"/>
      </g>
     </g>
     <g id="text_15">
      <!-- Lake -->
      <defs>
       <path d="M 57.328125 18.3125 
L 58.9375 17.96875 
L 53.265625 0 
L 2 0 
L 2 1.8125 
L 4.5 1.8125 
Q 8.6875 1.8125 10.5 4.546875 
Q 11.53125 6.109375 11.53125 11.765625 
L 11.53125 54.5 
Q 11.53125 60.6875 10.15625 62.25 
Q 8.25 64.40625 4.5 64.40625 
L 2 64.40625 
L 2 66.21875 
L 31.984375 66.21875 
L 31.984375 64.40625 
Q 26.703125 64.453125 24.578125 63.421875 
Q 22.46875 62.40625 21.6875 60.84375 
Q 20.90625 59.28125 20.90625 53.375 
L 20.90625 11.765625 
Q 20.90625 7.71875 21.6875 6.203125 
Q 22.265625 5.171875 23.484375 4.6875 
Q 24.703125 4.203125 31.109375 4.203125 
L 35.9375 4.203125 
Q 43.5625 4.203125 46.625 5.328125 
Q 49.703125 6.453125 52.234375 9.296875 
Q 54.78125 12.15625 57.328125 18.3125 
z
" id="TimesNewRomanPSMT-76"/>
      </defs>
      <g transform="translate(408.211942 265.710523)rotate(-45)scale(0.14 -0.14)">
       <use xlink:href="#TimesNewRomanPSMT-76"/>
       <use x="61.083984" xlink:href="#TimesNewRomanPSMT-97"/>
       <use x="105.46875" xlink:href="#TimesNewRomanPSMT-107"/>
       <use x="155.46875" xlink:href="#TimesNewRomanPSMT-101"/>
      </g>
     </g>
    </g>
    <g id="xtick_16">
     <g id="line2d_16">
      <g>
       <use style="stroke:#000000;stroke-width:0.8;" x="456.248425" xlink:href="#m35e05b5c03" y="232.051492"/>
      </g>
     </g>
     <g id="text_16">
      <!-- Island -->
      <defs>
       <path d="M 30.859375 1.8125 
L 30.859375 0 
L 2.484375 0 
L 2.484375 1.8125 
L 4.828125 1.8125 
Q 8.9375 1.8125 10.796875 4.203125 
Q 11.96875 5.765625 11.96875 11.71875 
L 11.96875 54.5 
Q 11.96875 59.515625 11.328125 61.140625 
Q 10.84375 62.359375 9.328125 63.234375 
Q 7.171875 64.40625 4.828125 64.40625 
L 2.484375 64.40625 
L 2.484375 66.21875 
L 30.859375 66.21875 
L 30.859375 64.40625 
L 28.46875 64.40625 
Q 24.421875 64.40625 22.5625 62.015625 
Q 21.34375 60.453125 21.34375 54.5 
L 21.34375 11.71875 
Q 21.34375 6.6875 21.96875 5.078125 
Q 22.46875 3.859375 24.03125 2.984375 
Q 26.125 1.8125 28.46875 1.8125 
z
" id="TimesNewRomanPSMT-73"/>
      </defs>
      <g transform="translate(429.937424 270.118892)rotate(-45)scale(0.14 -0.14)">
       <use xlink:href="#TimesNewRomanPSMT-73"/>
       <use x="33.300781" xlink:href="#TimesNewRomanPSMT-115"/>
       <use x="72.216797" xlink:href="#TimesNewRomanPSMT-108"/>
       <use x="100" xlink:href="#TimesNewRomanPSMT-97"/>
       <use x="144.384766" xlink:href="#TimesNewRomanPSMT-110"/>
       <use x="194.384766" xlink:href="#TimesNewRomanPSMT-100"/>
      </g>
     </g>
    </g>
    <g id="xtick_17">
     <g id="line2d_17">
      <g>
       <use style="stroke:#000000;stroke-width:0.8;" x="482.382275" xlink:href="#m35e05b5c03" y="232.051492"/>
      </g>
     </g>
     <g id="text_17">
      <!-- University -->
      <defs>
       <path d="M 47.703125 64.40625 
L 47.703125 66.21875 
L 71.140625 66.21875 
L 71.140625 64.40625 
L 68.65625 64.40625 
Q 64.75 64.40625 62.640625 61.140625 
Q 61.625 59.625 61.625 54.109375 
L 61.625 27.25 
Q 61.625 17.28125 59.640625 11.78125 
Q 57.671875 6.296875 51.875 2.359375 
Q 46.09375 -1.5625 36.140625 -1.5625 
Q 25.296875 -1.5625 19.671875 2.1875 
Q 14.0625 5.953125 11.71875 12.3125 
Q 10.15625 16.65625 10.15625 28.609375 
L 10.15625 54.5 
Q 10.15625 60.59375 8.46875 62.5 
Q 6.78125 64.40625 3.03125 64.40625 
L 0.53125 64.40625 
L 0.53125 66.21875 
L 29.15625 66.21875 
L 29.15625 64.40625 
L 26.609375 64.40625 
Q 22.515625 64.40625 20.75 61.8125 
Q 19.53125 60.0625 19.53125 54.5 
L 19.53125 25.640625 
Q 19.53125 21.78125 20.234375 16.796875 
Q 20.953125 11.8125 22.796875 9.03125 
Q 24.65625 6.25 28.140625 4.4375 
Q 31.640625 2.640625 36.71875 2.640625 
Q 43.21875 2.640625 48.34375 5.46875 
Q 53.46875 8.296875 55.34375 12.71875 
Q 57.234375 17.140625 57.234375 27.6875 
L 57.234375 54.5 
Q 57.234375 60.6875 55.859375 62.25 
Q 53.953125 64.40625 50.203125 64.40625 
z
" id="TimesNewRomanPSMT-85"/>
       <path d="M 0.59375 44.734375 
L 21.4375 44.734375 
L 21.4375 42.921875 
L 20.40625 42.921875 
Q 18.21875 42.921875 17.109375 41.96875 
Q 16.015625 41.015625 16.015625 39.59375 
Q 16.015625 37.703125 17.625 34.328125 
L 28.515625 11.765625 
L 38.53125 36.46875 
Q 39.359375 38.484375 39.359375 40.4375 
Q 39.359375 41.3125 39.015625 41.75 
Q 38.625 42.28125 37.796875 42.59375 
Q 36.96875 42.921875 34.859375 42.921875 
L 34.859375 44.734375 
L 49.421875 44.734375 
L 49.421875 42.921875 
Q 47.609375 42.71875 46.625 42.125 
Q 45.65625 41.546875 44.484375 39.9375 
Q 44.046875 39.265625 42.828125 36.1875 
L 24.609375 -8.453125 
Q 21.96875 -14.9375 17.6875 -18.25 
Q 13.421875 -21.578125 9.46875 -21.578125 
Q 6.59375 -21.578125 4.734375 -19.921875 
Q 2.875 -18.265625 2.875 -16.109375 
Q 2.875 -14.0625 4.21875 -12.8125 
Q 5.5625 -11.578125 7.90625 -11.578125 
Q 9.515625 -11.578125 12.3125 -12.640625 
Q 14.265625 -13.375 14.75 -13.375 
Q 16.21875 -13.375 17.9375 -11.859375 
Q 19.671875 -10.359375 21.4375 -6 
L 24.609375 1.765625 
L 8.546875 35.5 
Q 7.8125 37.015625 6.203125 39.265625 
Q 4.984375 40.96875 4.203125 41.546875 
Q 3.078125 42.328125 0.59375 42.921875 
z
" id="TimesNewRomanPSMT-121"/>
      </defs>
      <g transform="translate(438.453266 287.718338)rotate(-45)scale(0.14 -0.14)">
       <use xlink:href="#TimesNewRomanPSMT-85"/>
       <use x="72.216797" xlink:href="#TimesNewRomanPSMT-110"/>
       <use x="122.216797" xlink:href="#TimesNewRomanPSMT-105"/>
       <use x="150" xlink:href="#TimesNewRomanPSMT-118"/>
       <use x="200" xlink:href="#TimesNewRomanPSMT-101"/>
       <use x="244.384766" xlink:href="#TimesNewRomanPSMT-114"/>
       <use x="277.685547" xlink:href="#TimesNewRomanPSMT-115"/>
       <use x="316.601562" xlink:href="#TimesNewRomanPSMT-105"/>
       <use x="344.384766" xlink:href="#TimesNewRomanPSMT-116"/>
       <use x="372.167969" xlink:href="#TimesNewRomanPSMT-121"/>
      </g>
     </g>
    </g>
    <g id="xtick_18">
     <g id="line2d_18">
      <g>
       <use style="stroke:#000000;stroke-width:0.8;" x="508.516125" xlink:href="#m35e05b5c03" y="232.051492"/>
      </g>
     </g>
     <g id="text_18">
      <!-- Business enterprise -->
      <g transform="translate(429.688303 322.635712)rotate(-45)scale(0.14 -0.14)">
       <use xlink:href="#TimesNewRomanPSMT-66"/>
       <use x="66.699219" xlink:href="#TimesNewRomanPSMT-117"/>
       <use x="116.699219" xlink:href="#TimesNewRomanPSMT-115"/>
       <use x="155.615234" xlink:href="#TimesNewRomanPSMT-105"/>
       <use x="183.398438" xlink:href="#TimesNewRomanPSMT-110"/>
       <use x="233.398438" xlink:href="#TimesNewRomanPSMT-101"/>
       <use x="277.783203" xlink:href="#TimesNewRomanPSMT-115"/>
       <use x="316.699219" xlink:href="#TimesNewRomanPSMT-115"/>
       <use x="355.615234" xlink:href="#TimesNewRomanPSMT-32"/>
       <use x="380.615234" xlink:href="#TimesNewRomanPSMT-101"/>
       <use x="425" xlink:href="#TimesNewRomanPSMT-110"/>
       <use x="475" xlink:href="#TimesNewRomanPSMT-116"/>
       <use x="502.783203" xlink:href="#TimesNewRomanPSMT-101"/>
       <use x="547.167969" xlink:href="#TimesNewRomanPSMT-114"/>
       <use x="580.46875" xlink:href="#TimesNewRomanPSMT-112"/>
       <use x="630.46875" xlink:href="#TimesNewRomanPSMT-114"/>
       <use x="663.769531" xlink:href="#TimesNewRomanPSMT-105"/>
       <use x="691.552734" xlink:href="#TimesNewRomanPSMT-115"/>
       <use x="730.46875" xlink:href="#TimesNewRomanPSMT-101"/>
      </g>
     </g>
    </g>
    <g id="xtick_19">
     <g id="line2d_19">
      <g>
       <use style="stroke:#000000;stroke-width:0.8;" x="534.649975" xlink:href="#m35e05b5c03" y="232.051492"/>
      </g>
     </g>
     <g id="text_19">
      <!-- Battle -->
      <g transform="translate(508.889633 269.568232)rotate(-45)scale(0.14 -0.14)">
       <use xlink:href="#TimesNewRomanPSMT-66"/>
       <use x="66.699219" xlink:href="#TimesNewRomanPSMT-97"/>
       <use x="111.083984" xlink:href="#TimesNewRomanPSMT-116"/>
       <use x="138.867188" xlink:href="#TimesNewRomanPSMT-116"/>
       <use x="166.650391" xlink:href="#TimesNewRomanPSMT-108"/>
       <use x="194.433594" xlink:href="#TimesNewRomanPSMT-101"/>
      </g>
     </g>
    </g>
    <g id="xtick_20">
     <g id="line2d_20">
      <g>
       <use style="stroke:#000000;stroke-width:0.8;" x="560.783825" xlink:href="#m35e05b5c03" y="232.051492"/>
      </g>
     </g>
     <g id="text_20">
      <!-- Archaeological site -->
      <g transform="translate(481.95755 322.615604)rotate(-45)scale(0.14 -0.14)">
       <use xlink:href="#TimesNewRomanPSMT-65"/>
       <use x="72.216797" xlink:href="#TimesNewRomanPSMT-114"/>
       <use x="105.517578" xlink:href="#TimesNewRomanPSMT-99"/>
       <use x="149.902344" xlink:href="#TimesNewRomanPSMT-104"/>
       <use x="199.902344" xlink:href="#TimesNewRomanPSMT-97"/>
       <use x="244.287109" xlink:href="#TimesNewRomanPSMT-101"/>
       <use x="288.671875" xlink:href="#TimesNewRomanPSMT-111"/>
       <use x="338.671875" xlink:href="#TimesNewRomanPSMT-108"/>
       <use x="366.455078" xlink:href="#TimesNewRomanPSMT-111"/>
       <use x="416.455078" xlink:href="#TimesNewRomanPSMT-103"/>
       <use x="466.455078" xlink:href="#TimesNewRomanPSMT-105"/>
       <use x="494.238281" xlink:href="#TimesNewRomanPSMT-99"/>
       <use x="538.623047" xlink:href="#TimesNewRomanPSMT-97"/>
       <use x="583.007812" xlink:href="#TimesNewRomanPSMT-108"/>
       <use x="610.791016" xlink:href="#TimesNewRomanPSMT-32"/>
       <use x="635.791016" xlink:href="#TimesNewRomanPSMT-115"/>
       <use x="674.707031" xlink:href="#TimesNewRomanPSMT-105"/>
       <use x="702.490234" xlink:href="#TimesNewRomanPSMT-116"/>
       <use x="730.273438" xlink:href="#TimesNewRomanPSMT-101"/>
      </g>
     </g>
    </g>
    <g id="xtick_21">
     <g id="line2d_21">
      <g>
       <use style="stroke:#000000;stroke-width:0.8;" x="586.917675" xlink:href="#m35e05b5c03" y="232.051492"/>
      </g>
     </g>
     <g id="text_21">
      <!-- Museum -->
      <g transform="translate(550.150332 280.575233)rotate(-45)scale(0.14 -0.14)">
       <use xlink:href="#TimesNewRomanPSMT-77"/>
       <use x="88.916016" xlink:href="#TimesNewRomanPSMT-117"/>
       <use x="138.916016" xlink:href="#TimesNewRomanPSMT-115"/>
       <use x="177.832031" xlink:href="#TimesNewRomanPSMT-101"/>
       <use x="222.216797" xlink:href="#TimesNewRomanPSMT-117"/>
       <use x="272.216797" xlink:href="#TimesNewRomanPSMT-109"/>
      </g>
     </g>
    </g>
    <g id="xtick_22">
     <g id="line2d_22">
      <g>
       <use style="stroke:#000000;stroke-width:0.8;" x="613.051525" xlink:href="#m35e05b5c03" y="232.051492"/>
      </g>
     </g>
     <g id="text_22">
      <!-- Magazine -->
      <defs>
       <path d="M 42 13.71875 
L 41.453125 0 
L 2 0 
L 2 1.765625 
L 31.6875 41.3125 
L 17.046875 41.3125 
Q 12.3125 41.3125 10.84375 40.703125 
Q 9.375 40.09375 8.453125 38.375 
Q 7.125 35.9375 6.9375 32.328125 
L 4.984375 32.328125 
L 5.28125 44.734375 
L 42.78125 44.734375 
L 42.78125 42.921875 
L 12.796875 3.265625 
L 29.109375 3.265625 
Q 34.234375 3.265625 36.0625 4.125 
Q 37.890625 4.984375 39.015625 7.125 
Q 39.796875 8.6875 40.328125 13.71875 
z
" id="TimesNewRomanPSMT-122"/>
      </defs>
      <g transform="translate(571.885094 284.95576)rotate(-45)scale(0.14 -0.14)">
       <use xlink:href="#TimesNewRomanPSMT-77"/>
       <use x="88.916016" xlink:href="#TimesNewRomanPSMT-97"/>
       <use x="133.300781" xlink:href="#TimesNewRomanPSMT-103"/>
       <use x="183.300781" xlink:href="#TimesNewRomanPSMT-97"/>
       <use x="227.685547" xlink:href="#TimesNewRomanPSMT-122"/>
       <use x="272.070312" xlink:href="#TimesNewRomanPSMT-105"/>
       <use x="299.853516" xlink:href="#TimesNewRomanPSMT-110"/>
       <use x="349.853516" xlink:href="#TimesNewRomanPSMT-101"/>
      </g>
     </g>
    </g>
    <g id="xtick_23">
     <g id="line2d_23">
      <g>
       <use style="stroke:#000000;stroke-width:0.8;" x="639.185375" xlink:href="#m35e05b5c03" y="232.051492"/>
      </g>
     </g>
     <g id="text_23">
      <!-- City -->
      <g transform="translate(619.995823 262.978881)rotate(-45)scale(0.14 -0.14)">
       <use xlink:href="#TimesNewRomanPSMT-67"/>
       <use x="66.699219" xlink:href="#TimesNewRomanPSMT-105"/>
       <use x="94.482422" xlink:href="#TimesNewRomanPSMT-116"/>
       <use x="122.265625" xlink:href="#TimesNewRomanPSMT-121"/>
      </g>
     </g>
    </g>
    <g id="xtick_24">
     <g id="line2d_24">
      <g>
       <use style="stroke:#000000;stroke-width:0.8;" x="665.319225" xlink:href="#m35e05b5c03" y="232.051492"/>
      </g>
     </g>
     <g id="text_24">
      <!-- Ethnic group -->
      <defs>
       <path d="M 20.90625 62.59375 
L 20.90625 36.421875 
L 35.453125 36.421875 
Q 41.109375 36.421875 43.015625 38.140625 
Q 45.5625 40.375 45.84375 46.046875 
L 47.65625 46.046875 
L 47.65625 23 
L 45.84375 23 
Q 45.171875 27.828125 44.484375 29.203125 
Q 43.609375 30.90625 41.59375 31.875 
Q 39.59375 32.859375 35.453125 32.859375 
L 20.90625 32.859375 
L 20.90625 11.03125 
Q 20.90625 6.640625 21.296875 5.6875 
Q 21.6875 4.734375 22.65625 4.171875 
Q 23.640625 3.609375 26.375 3.609375 
L 37.59375 3.609375 
Q 43.21875 3.609375 45.75 4.390625 
Q 48.296875 5.171875 50.640625 7.46875 
Q 53.65625 10.5 56.84375 16.609375 
L 58.796875 16.609375 
L 53.078125 0 
L 2.046875 0 
L 2.046875 1.8125 
L 4.390625 1.8125 
Q 6.734375 1.8125 8.84375 2.9375 
Q 10.40625 3.71875 10.96875 5.28125 
Q 11.53125 6.84375 11.53125 11.671875 
L 11.53125 54.6875 
Q 11.53125 60.984375 10.25 62.453125 
Q 8.5 64.40625 4.390625 64.40625 
L 2.046875 64.40625 
L 2.046875 66.21875 
L 53.078125 66.21875 
L 53.8125 51.703125 
L 51.90625 51.703125 
Q 50.875 56.9375 49.625 58.890625 
Q 48.390625 60.84375 45.953125 61.859375 
Q 44 62.59375 39.0625 62.59375 
z
" id="TimesNewRomanPSMT-69"/>
      </defs>
      <g transform="translate(611.772238 297.336316)rotate(-45)scale(0.14 -0.14)">
       <use xlink:href="#TimesNewRomanPSMT-69"/>
       <use x="61.083984" xlink:href="#TimesNewRomanPSMT-116"/>
       <use x="88.867188" xlink:href="#TimesNewRomanPSMT-104"/>
       <use x="138.867188" xlink:href="#TimesNewRomanPSMT-110"/>
       <use x="188.867188" xlink:href="#TimesNewRomanPSMT-105"/>
       <use x="216.650391" xlink:href="#TimesNewRomanPSMT-99"/>
       <use x="261.035156" xlink:href="#TimesNewRomanPSMT-32"/>
       <use x="286.035156" xlink:href="#TimesNewRomanPSMT-103"/>
       <use x="336.035156" xlink:href="#TimesNewRomanPSMT-114"/>
       <use x="369.335938" xlink:href="#TimesNewRomanPSMT-111"/>
       <use x="419.335938" xlink:href="#TimesNewRomanPSMT-117"/>
       <use x="469.335938" xlink:href="#TimesNewRomanPSMT-112"/>
      </g>
     </g>
    </g>
    <g id="xtick_25">
     <g id="line2d_25">
      <g>
       <use style="stroke:#000000;stroke-width:0.8;" x="691.453075" xlink:href="#m35e05b5c03" y="232.051492"/>
      </g>
     </g>
     <g id="text_25">
      <!-- Award -->
      <g transform="translate(662.410432 272.850534)rotate(-45)scale(0.14 -0.14)">
       <use xlink:href="#TimesNewRomanPSMT-65"/>
       <use x="72.076172" xlink:href="#TimesNewRomanPSMT-119"/>
       <use x="144.292969" xlink:href="#TimesNewRomanPSMT-97"/>
       <use x="188.677734" xlink:href="#TimesNewRomanPSMT-114"/>
       <use x="221.978516" xlink:href="#TimesNewRomanPSMT-100"/>
      </g>
     </g>
    </g>
    <g id="text_26">
     <!-- Concept Name -->
     <defs>
      <path d="M -1.3125 66.21875 
L 16.65625 66.21875 
L 57.125 16.546875 
L 57.125 54.734375 
Q 57.125 60.84375 55.765625 62.359375 
Q 53.953125 64.40625 50.046875 64.40625 
L 47.75 64.40625 
L 47.75 66.21875 
L 70.796875 66.21875 
L 70.796875 64.40625 
L 68.453125 64.40625 
Q 64.265625 64.40625 62.5 61.859375 
Q 61.421875 60.296875 61.421875 54.734375 
L 61.421875 -1.078125 
L 59.671875 -1.078125 
L 16.015625 52.25 
L 16.015625 11.46875 
Q 16.015625 5.375 17.328125 3.859375 
Q 19.1875 1.8125 23.046875 1.8125 
L 25.390625 1.8125 
L 25.390625 0 
L 2.34375 0 
L 2.34375 1.8125 
L 4.640625 1.8125 
Q 8.890625 1.8125 10.640625 4.34375 
Q 11.71875 5.90625 11.71875 11.46875 
L 11.71875 57.515625 
Q 8.84375 60.890625 7.34375 61.953125 
Q 5.859375 63.03125 2.984375 63.96875 
Q 1.5625 64.40625 -1.3125 64.40625 
z
" id="TimesNewRomanPSMT-78"/>
     </defs>
     <g transform="translate(336.053594 343.411899)scale(0.14 -0.14)">
      <use xlink:href="#TimesNewRomanPSMT-67"/>
      <use x="66.699219" xlink:href="#TimesNewRomanPSMT-111"/>
      <use x="116.699219" xlink:href="#TimesNewRomanPSMT-110"/>
      <use x="166.699219" xlink:href="#TimesNewRomanPSMT-99"/>
      <use x="211.083984" xlink:href="#TimesNewRomanPSMT-101"/>
      <use x="255.46875" xlink:href="#TimesNewRomanPSMT-112"/>
      <use x="305.46875" xlink:href="#TimesNewRomanPSMT-116"/>
      <use x="333.251953" xlink:href="#TimesNewRomanPSMT-32"/>
      <use x="358.251953" xlink:href="#TimesNewRomanPSMT-78"/>
      <use x="430.46875" xlink:href="#TimesNewRomanPSMT-97"/>
      <use x="474.853516" xlink:href="#TimesNewRomanPSMT-109"/>
      <use x="552.636719" xlink:href="#TimesNewRomanPSMT-101"/>
     </g>
    </g>
   </g>
   <g id="matplotlib.axis_2">
    <g id="ytick_1">
     <g id="line2d_26">
      <defs>
       <path d="M 0 0 
L -3.5 0 
" id="m8c46811ddd" style="stroke:#000000;stroke-width:0.8;"/>
      </defs>
      <g>
       <use style="stroke:#000000;stroke-width:0.8;" x="51.17375" xlink:href="#m8c46811ddd" y="232.051492"/>
      </g>
     </g>
     <g id="text_27">
      <!-- 0 -->
      <defs>
       <path d="M 3.609375 32.71875 
Q 3.609375 44.046875 7.03125 52.21875 
Q 10.453125 60.40625 16.109375 64.40625 
Q 20.515625 67.578125 25.203125 67.578125 
Q 32.8125 67.578125 38.875 59.8125 
Q 46.4375 50.203125 46.4375 33.734375 
Q 46.4375 22.21875 43.109375 14.15625 
Q 39.796875 6.109375 34.640625 2.46875 
Q 29.5 -1.171875 24.703125 -1.171875 
Q 15.234375 -1.171875 8.9375 10.015625 
Q 3.609375 19.4375 3.609375 32.71875 
z
M 13.1875 31.5 
Q 13.1875 17.828125 16.546875 9.1875 
Q 19.34375 1.90625 24.859375 1.90625 
Q 27.484375 1.90625 30.3125 4.265625 
Q 33.15625 6.640625 34.625 12.203125 
Q 36.859375 20.609375 36.859375 35.890625 
Q 36.859375 47.21875 34.515625 54.78125 
Q 32.765625 60.40625 29.984375 62.75 
Q 27.984375 64.359375 25.140625 64.359375 
Q 21.828125 64.359375 19.234375 61.375 
Q 15.71875 57.328125 14.453125 48.625 
Q 13.1875 39.9375 13.1875 31.5 
z
" id="TimesNewRomanPSMT-48"/>
      </defs>
      <g transform="translate(37.17375 236.912117)scale(0.14 -0.14)">
       <use xlink:href="#TimesNewRomanPSMT-48"/>
      </g>
     </g>
    </g>
    <g id="ytick_2">
     <g id="line2d_27">
      <g>
       <use style="stroke:#000000;stroke-width:0.8;" x="51.17375" xlink:href="#m8c46811ddd" y="198.272581"/>
      </g>
     </g>
     <g id="text_28">
      <!-- 2 -->
      <defs>
       <path d="M 45.84375 12.75 
L 41.21875 0 
L 2.15625 0 
L 2.15625 1.8125 
Q 19.390625 17.53125 26.421875 27.484375 
Q 33.453125 37.453125 33.453125 45.703125 
Q 33.453125 52 29.59375 56.046875 
Q 25.734375 60.109375 20.359375 60.109375 
Q 15.484375 60.109375 11.59375 57.25 
Q 7.71875 54.390625 5.859375 48.875 
L 4.046875 48.875 
Q 5.28125 57.90625 10.328125 62.734375 
Q 15.375 67.578125 22.953125 67.578125 
Q 31 67.578125 36.390625 62.40625 
Q 41.796875 57.234375 41.796875 50.203125 
Q 41.796875 45.171875 39.453125 40.140625 
Q 35.84375 32.234375 27.734375 23.390625 
Q 15.578125 10.109375 12.546875 7.375 
L 29.828125 7.375 
Q 35.109375 7.375 37.234375 7.765625 
Q 39.359375 8.15625 41.0625 9.34375 
Q 42.78125 10.546875 44.046875 12.75 
z
" id="TimesNewRomanPSMT-50"/>
      </defs>
      <g transform="translate(37.17375 203.133206)scale(0.14 -0.14)">
       <use xlink:href="#TimesNewRomanPSMT-50"/>
      </g>
     </g>
    </g>
    <g id="ytick_3">
     <g id="line2d_28">
      <g>
       <use style="stroke:#000000;stroke-width:0.8;" x="51.17375" xlink:href="#m8c46811ddd" y="164.49367"/>
      </g>
     </g>
     <g id="text_29">
      <!-- 4 -->
      <defs>
       <path d="M 46.53125 24.421875 
L 46.53125 17.484375 
L 37.640625 17.484375 
L 37.640625 0 
L 29.59375 0 
L 29.59375 17.484375 
L 1.5625 17.484375 
L 1.5625 23.734375 
L 32.28125 67.578125 
L 37.640625 67.578125 
L 37.640625 24.421875 
z
M 29.59375 24.421875 
L 29.59375 57.28125 
L 6.34375 24.421875 
z
" id="TimesNewRomanPSMT-52"/>
      </defs>
      <g transform="translate(37.17375 169.354295)scale(0.14 -0.14)">
       <use xlink:href="#TimesNewRomanPSMT-52"/>
      </g>
     </g>
    </g>
    <g id="ytick_4">
     <g id="line2d_29">
      <g>
       <use style="stroke:#000000;stroke-width:0.8;" x="51.17375" xlink:href="#m8c46811ddd" y="130.714759"/>
      </g>
     </g>
     <g id="text_30">
      <!-- 6 -->
      <defs>
       <path d="M 44.828125 67.578125 
L 44.828125 65.765625 
Q 38.375 65.140625 34.296875 63.203125 
Q 30.21875 61.28125 26.234375 57.328125 
Q 22.265625 53.375 19.65625 48.515625 
Q 17.046875 43.65625 15.28125 36.96875 
Q 22.3125 41.796875 29.390625 41.796875 
Q 36.1875 41.796875 41.15625 36.328125 
Q 46.140625 30.859375 46.140625 22.265625 
Q 46.140625 13.96875 41.109375 7.125 
Q 35.0625 -1.171875 25.09375 -1.171875 
Q 18.3125 -1.171875 13.578125 3.328125 
Q 4.296875 12.0625 4.296875 25.984375 
Q 4.296875 34.859375 7.859375 42.859375 
Q 11.421875 50.875 18.03125 57.078125 
Q 24.65625 63.28125 30.703125 65.421875 
Q 36.765625 67.578125 42 67.578125 
z
M 14.453125 33.40625 
Q 13.578125 26.8125 13.578125 22.75 
Q 13.578125 18.0625 15.3125 12.5625 
Q 17.046875 7.078125 20.453125 3.859375 
Q 22.953125 1.5625 26.515625 1.5625 
Q 30.765625 1.5625 34.109375 5.5625 
Q 37.453125 9.578125 37.453125 17 
Q 37.453125 25.34375 34.125 31.4375 
Q 30.8125 37.546875 24.703125 37.546875 
Q 22.859375 37.546875 20.734375 36.765625 
Q 18.609375 35.984375 14.453125 33.40625 
z
" id="TimesNewRomanPSMT-54"/>
      </defs>
      <g transform="translate(37.17375 135.575384)scale(0.14 -0.14)">
       <use xlink:href="#TimesNewRomanPSMT-54"/>
      </g>
     </g>
    </g>
    <g id="ytick_5">
     <g id="line2d_30">
      <g>
       <use style="stroke:#000000;stroke-width:0.8;" x="51.17375" xlink:href="#m8c46811ddd" y="96.935848"/>
      </g>
     </g>
     <g id="text_31">
      <!-- 8 -->
      <defs>
       <path d="M 19.1875 33.34375 
Q 11.328125 39.796875 9.046875 43.703125 
Q 6.78125 47.609375 6.78125 51.8125 
Q 6.78125 58.25 11.765625 62.90625 
Q 16.75 67.578125 25 67.578125 
Q 33.015625 67.578125 37.890625 63.234375 
Q 42.78125 58.890625 42.78125 53.328125 
Q 42.78125 49.609375 40.140625 45.75 
Q 37.5 41.890625 29.15625 36.671875 
Q 37.75 30.03125 40.53125 26.21875 
Q 44.234375 21.234375 44.234375 15.71875 
Q 44.234375 8.734375 38.90625 3.78125 
Q 33.59375 -1.171875 24.953125 -1.171875 
Q 15.53125 -1.171875 10.25 4.734375 
Q 6.0625 9.46875 6.0625 15.09375 
Q 6.0625 19.484375 9.015625 23.796875 
Q 11.96875 28.125 19.1875 33.34375 
z
M 26.859375 38.578125 
Q 32.71875 43.84375 34.28125 46.890625 
Q 35.84375 49.953125 35.84375 53.8125 
Q 35.84375 58.9375 32.953125 61.84375 
Q 30.078125 64.75 25.09375 64.75 
Q 20.125 64.75 17 61.859375 
Q 13.875 58.984375 13.875 55.125 
Q 13.875 52.59375 15.15625 50.046875 
Q 16.453125 47.515625 18.84375 45.21875 
z
M 21.484375 31.5 
Q 17.4375 28.078125 15.484375 24.046875 
Q 13.53125 20.015625 13.53125 15.328125 
Q 13.53125 9.03125 16.96875 5.25 
Q 20.40625 1.46875 25.734375 1.46875 
Q 31 1.46875 34.171875 4.4375 
Q 37.359375 7.421875 37.359375 11.671875 
Q 37.359375 15.1875 35.5 17.96875 
Q 32.03125 23.140625 21.484375 31.5 
z
" id="TimesNewRomanPSMT-56"/>
      </defs>
      <g transform="translate(37.17375 101.796473)scale(0.14 -0.14)">
       <use xlink:href="#TimesNewRomanPSMT-56"/>
      </g>
     </g>
    </g>
    <g id="ytick_6">
     <g id="line2d_31">
      <g>
       <use style="stroke:#000000;stroke-width:0.8;" x="51.17375" xlink:href="#m8c46811ddd" y="63.156937"/>
      </g>
     </g>
     <g id="text_32">
      <!-- 10 -->
      <defs>
       <path d="M 11.71875 59.71875 
L 27.828125 67.578125 
L 29.4375 67.578125 
L 29.4375 11.671875 
Q 29.4375 6.109375 29.90625 4.734375 
Q 30.375 3.375 31.828125 2.640625 
Q 33.296875 1.90625 37.796875 1.8125 
L 37.796875 0 
L 12.890625 0 
L 12.890625 1.8125 
Q 17.578125 1.90625 18.9375 2.609375 
Q 20.3125 3.328125 20.84375 4.515625 
Q 21.390625 5.71875 21.390625 11.671875 
L 21.390625 47.40625 
Q 21.390625 54.640625 20.90625 56.6875 
Q 20.5625 58.25 19.65625 58.984375 
Q 18.75 59.71875 17.484375 59.71875 
Q 15.671875 59.71875 12.453125 58.203125 
z
" id="TimesNewRomanPSMT-49"/>
      </defs>
      <g transform="translate(30.17375 68.017562)scale(0.14 -0.14)">
       <use xlink:href="#TimesNewRomanPSMT-49"/>
       <use x="50" xlink:href="#TimesNewRomanPSMT-48"/>
      </g>
     </g>
    </g>
    <g id="ytick_7">
     <g id="line2d_32">
      <g>
       <use style="stroke:#000000;stroke-width:0.8;" x="51.17375" xlink:href="#m8c46811ddd" y="29.378026"/>
      </g>
     </g>
     <g id="text_33">
      <!-- 12 -->
      <g transform="translate(30.17375 34.238651)scale(0.14 -0.14)">
       <use xlink:href="#TimesNewRomanPSMT-49"/>
       <use x="50" xlink:href="#TimesNewRomanPSMT-50"/>
      </g>
     </g>
    </g>
    <g id="text_34">
     <!-- log(#entity) -->
     <defs>
      <path d="M 5.609375 -1.375 
L 10.15625 20.84375 
L 1.8125 20.84375 
L 1.8125 24.859375 
L 10.9375 24.859375 
L 14.3125 41.609375 
L 1.8125 41.609375 
L 1.8125 45.515625 
L 15.234375 45.515625 
L 19.671875 67.71875 
L 23.734375 67.71875 
L 19.28125 45.515625 
L 35.75 45.515625 
L 40.484375 67.71875 
L 44.53125 67.71875 
L 39.890625 45.515625 
L 48.1875 45.515625 
L 48.1875 41.609375 
L 39.15625 41.609375 
L 35.75 24.859375 
L 48.1875 24.859375 
L 48.1875 20.84375 
L 34.90625 20.84375 
L 30.375 -1.375 
L 26.421875 -1.375 
L 30.859375 20.84375 
L 14.3125 20.84375 
L 9.671875 -1.375 
z
M 15.046875 24.859375 
L 31.59375 24.859375 
L 35.109375 41.609375 
L 18.453125 41.609375 
z
" id="TimesNewRomanPSMT-35"/>
     </defs>
     <g transform="translate(23.152813 156.813402)rotate(-90)scale(0.14 -0.14)">
      <use xlink:href="#TimesNewRomanPSMT-108"/>
      <use x="27.783203" xlink:href="#TimesNewRomanPSMT-111"/>
      <use x="77.783203" xlink:href="#TimesNewRomanPSMT-103"/>
      <use x="127.783203" xlink:href="#TimesNewRomanPSMT-40"/>
      <use x="161.083984" xlink:href="#TimesNewRomanPSMT-35"/>
      <use x="211.083984" xlink:href="#TimesNewRomanPSMT-101"/>
      <use x="255.46875" xlink:href="#TimesNewRomanPSMT-110"/>
      <use x="305.46875" xlink:href="#TimesNewRomanPSMT-116"/>
      <use x="333.251953" xlink:href="#TimesNewRomanPSMT-105"/>
      <use x="361.035156" xlink:href="#TimesNewRomanPSMT-116"/>
      <use x="388.818359" xlink:href="#TimesNewRomanPSMT-121"/>
      <use x="438.818359" xlink:href="#TimesNewRomanPSMT-41"/>
     </g>
    </g>
   </g>
   <g id="line2d_33">
    <path clip-path="url(#p86d18edcd0)" d="M 0 0 
" style="fill:none;stroke:#424242;stroke-linecap:round;stroke-width:2.7;"/>
   </g>
   <g id="line2d_34">
    <path clip-path="url(#p86d18edcd0)" d="M 0 0 
" style="fill:none;stroke:#424242;stroke-linecap:round;stroke-width:2.7;"/>
   </g>
   <g id="line2d_35">
    <path clip-path="url(#p86d18edcd0)" d="M 0 0 
" style="fill:none;stroke:#424242;stroke-linecap:round;stroke-width:2.7;"/>
   </g>
   <g id="line2d_36">
    <path clip-path="url(#p86d18edcd0)" d="M 0 0 
" style="fill:none;stroke:#424242;stroke-linecap:round;stroke-width:2.7;"/>
   </g>
   <g id="line2d_37">
    <path clip-path="url(#p86d18edcd0)" d="M 0 0 
" style="fill:none;stroke:#424242;stroke-linecap:round;stroke-width:2.7;"/>
   </g>
   <g id="line2d_38">
    <path clip-path="url(#p86d18edcd0)" d="M 0 0 
" style="fill:none;stroke:#424242;stroke-linecap:round;stroke-width:2.7;"/>
   </g>
   <g id="line2d_39">
    <path clip-path="url(#p86d18edcd0)" d="M 0 0 
" style="fill:none;stroke:#424242;stroke-linecap:round;stroke-width:2.7;"/>
   </g>
   <g id="line2d_40">
    <path clip-path="url(#p86d18edcd0)" d="M 0 0 
" style="fill:none;stroke:#424242;stroke-linecap:round;stroke-width:2.7;"/>
   </g>
   <g id="line2d_41">
    <path clip-path="url(#p86d18edcd0)" d="M 0 0 
" style="fill:none;stroke:#424242;stroke-linecap:round;stroke-width:2.7;"/>
   </g>
   <g id="line2d_42">
    <path clip-path="url(#p86d18edcd0)" d="M 0 0 
" style="fill:none;stroke:#424242;stroke-linecap:round;stroke-width:2.7;"/>
   </g>
   <g id="line2d_43">
    <path clip-path="url(#p86d18edcd0)" d="M 0 0 
" style="fill:none;stroke:#424242;stroke-linecap:round;stroke-width:2.7;"/>
   </g>
   <g id="line2d_44">
    <path clip-path="url(#p86d18edcd0)" d="M 0 0 
" style="fill:none;stroke:#424242;stroke-linecap:round;stroke-width:2.7;"/>
   </g>
   <g id="line2d_45">
    <path clip-path="url(#p86d18edcd0)" d="M 0 0 
" style="fill:none;stroke:#424242;stroke-linecap:round;stroke-width:2.7;"/>
   </g>
   <g id="line2d_46">
    <path clip-path="url(#p86d18edcd0)" d="M 0 0 
" style="fill:none;stroke:#424242;stroke-linecap:round;stroke-width:2.7;"/>
   </g>
   <g id="line2d_47">
    <path clip-path="url(#p86d18edcd0)" d="M 0 0 
" style="fill:none;stroke:#424242;stroke-linecap:round;stroke-width:2.7;"/>
   </g>
   <g id="line2d_48">
    <path clip-path="url(#p86d18edcd0)" d="M 0 0 
" style="fill:none;stroke:#424242;stroke-linecap:round;stroke-width:2.7;"/>
   </g>
   <g id="line2d_49">
    <path clip-path="url(#p86d18edcd0)" d="M 0 0 
" style="fill:none;stroke:#424242;stroke-linecap:round;stroke-width:2.7;"/>
   </g>
   <g id="line2d_50">
    <path clip-path="url(#p86d18edcd0)" d="M 0 0 
" style="fill:none;stroke:#424242;stroke-linecap:round;stroke-width:2.7;"/>
   </g>
   <g id="line2d_51">
    <path clip-path="url(#p86d18edcd0)" d="M 0 0 
" style="fill:none;stroke:#424242;stroke-linecap:round;stroke-width:2.7;"/>
   </g>
   <g id="line2d_52">
    <path clip-path="url(#p86d18edcd0)" d="M 0 0 
" style="fill:none;stroke:#424242;stroke-linecap:round;stroke-width:2.7;"/>
   </g>
   <g id="line2d_53">
    <path clip-path="url(#p86d18edcd0)" d="M 0 0 
" style="fill:none;stroke:#424242;stroke-linecap:round;stroke-width:2.7;"/>
   </g>
   <g id="line2d_54">
    <path clip-path="url(#p86d18edcd0)" d="M 0 0 
" style="fill:none;stroke:#424242;stroke-linecap:round;stroke-width:2.7;"/>
   </g>
   <g id="line2d_55">
    <path clip-path="url(#p86d18edcd0)" d="M 0 0 
" style="fill:none;stroke:#424242;stroke-linecap:round;stroke-width:2.7;"/>
   </g>
   <g id="line2d_56">
    <path clip-path="url(#p86d18edcd0)" d="M 0 0 
" style="fill:none;stroke:#424242;stroke-linecap:round;stroke-width:2.7;"/>
   </g>
   <g id="line2d_57">
    <path clip-path="url(#p86d18edcd0)" d="M 0 0 
" style="fill:none;stroke:#424242;stroke-linecap:round;stroke-width:2.7;"/>
   </g>
   <g id="patch_28">
    <path d="M 51.17375 232.051492 
L 51.17375 15.48 
" style="fill:none;stroke:#000000;stroke-linecap:square;stroke-linejoin:miter;stroke-width:0.8;"/>
   </g>
   <g id="patch_29">
    <path d="M 704.52 232.051492 
L 704.52 15.48 
" style="fill:none;stroke:#000000;stroke-linecap:square;stroke-linejoin:miter;stroke-width:0.8;"/>
   </g>
   <g id="patch_30">
    <path d="M 51.17375 232.051492 
L 704.52 232.051492 
" style="fill:none;stroke:#000000;stroke-linecap:square;stroke-linejoin:miter;stroke-width:0.8;"/>
   </g>
   <g id="patch_31">
    <path d="M 51.17375 15.48 
L 704.52 15.48 
" style="fill:none;stroke:#000000;stroke-linecap:square;stroke-linejoin:miter;stroke-width:0.8;"/>
   </g>
  </g>
 </g>
 <defs>
  <clipPath id="p86d18edcd0">
   <rect height="216.571492" width="653.34625" x="51.17375" y="15.48"/>
  </clipPath>
 </defs>
</svg>
